<?xml version="1.0" encoding="UTF-8" standalone="no"?>
<!-- Created with Inkscape (http://www.inkscape.org/) -->

<svg
        sodipodi:docname="xftp.svg"
        inkscape:version="1.1 (c4e8f9e, 2021-05-24)"
        id="svg5"
        version="1.1"
        viewBox="0 0 132.29166 132.29167"
        height="500"
        width="500"
        xmlns:inkscape="http://www.inkscape.org/namespaces/inkscape"
        xmlns:sodipodi="http://sodipodi.sourceforge.net/DTD/sodipodi-0.dtd"
        xmlns="http://www.w3.org/2000/svg"
        xmlns:svg="http://www.w3.org/2000/svg">
  <sodipodi:namedview
          id="namedview7"
          pagecolor="#ffffff"
          bordercolor="#666666"
          borderopacity="1.0"
          inkscape:pageshadow="2"
          inkscape:pageopacity="0.0"
          inkscape:pagecheckerboard="0"
          inkscape:document-units="px"
          showgrid="true"
          units="px"
          width="500px"
          inkscape:zoom="2.1503073"
          inkscape:cx="278.79736"
          inkscape:cy="236.01278"
          inkscape:window-width="2560"
          inkscape:window-height="1387"
          inkscape:window-x="0"
          inkscape:window-y="25"
          inkscape:window-maximized="1"
          inkscape:current-layer="layer3">
    <inkscape:grid
            type="xygrid"
            id="grid9" />
  </sodipodi:namedview>
  <defs
          id="defs2" />
  <g
          inkscape:groupmode="layer"
          id="layer2"
          inkscape:label="source"
          style="display:none"
          sodipodi:insensitive="true">
    <path
            id="path44"
            style="fill:#000000;fill-opacity:1;stroke:#000000;stroke-width:0.264583px;stroke-linecap:butt;stroke-linejoin:miter;stroke-opacity:1"
            d="M 12.515001,21.166667 28.055655,39.6875 h 15.875 l 8.880594,10.583334 h -15.875 l 3.33003,3.96875 H 60.110028 L 47.899405,39.6875 44.569375,35.718751 h -15.875 L 19.81378,25.135417 h 15.875001 l -3.33003,-3.96875 z m 23.8125,0 27.751277,33.072917 h 3.96875 L 55.836904,39.6875 H 71.711909 L 68.381874,35.718751 H 52.506875 L 43.626281,25.135417 H 59.50128 l -3.33003,-3.96875 z m 23.812499,0 3.33003,3.96875 h 7.937499 l 24.42125,29.104167 h 3.96875 L 75.376279,25.135417 h 7.9375 l -3.33003,-3.96875 z m 23.812499,0 27.751281,33.072917 h 3.96875 L 103.4619,39.6875 h 15.87501 l -12.21063,-14.552083 -3.33003,-3.96875 z m 7.29878,3.96875 h 7.9375 3.968751 l 8.8806,10.583334 h -11.90626 z" />
    <path
            id="path8280"
            style="fill:#000000;fill-opacity:1;stroke:#000000;stroke-width:0.264583px;stroke-linecap:butt;stroke-linejoin:miter;stroke-opacity:1"
            d="m 12.544973,38.364583 15.540654,18.520833 h 15.875 l 8.880594,10.583334 h -15.875 l 3.33003,3.96875 H 60.14 L 47.929377,56.885416 44.599347,52.916667 h -15.875 L 19.843752,42.333333 h 15.875001 l -3.33003,-3.96875 z m 23.8125,0 L 64.10875,71.4375 H 68.0775 L 55.866876,56.885416 H 71.741879 L 68.411846,52.916667 H 52.536847 L 43.656253,42.333333 h 15.874999 l -3.33003,-3.96875 z m 23.812499,0 3.33003,3.96875 h 7.937497 L 95.858749,71.4375 h 3.96875 L 75.406249,42.333333 h 7.9375 l -3.33003,-3.96875 z m 23.812497,0 27.751281,33.072917 h 3.96875 L 103.49188,56.885416 h 15.875 l -12.21063,-14.552083 -3.33003,-3.96875 z m 7.29878,3.96875 h 7.9375 3.968751 l 8.8806,10.583334 h -11.90625 z" />
  </g>
  <g
          inkscape:label="sftp"
          inkscape:groupmode="layer"
          id="layer1"
          style="display:inline">
    <g
            id="g10563"
            style="display:inline;fill:#f6f704;fill-opacity:1;stroke:#0fee59;stroke-opacity:1"
            transform="matrix(1.135657,0,0,1.135657,-8.74053,37.121872)">
      <path
              style="fill:#f6f704;fill-opacity:1;stroke:#0fee59;stroke-width:0.264583px;stroke-linecap:butt;stroke-linejoin:miter;stroke-opacity:1"
              d="m 12.545,38.3646 15.5406,18.5208 h 15.875 l 8.8806,10.5834 h -15.875 l 3.3301,3.9687 H 60.14 L 47.9294,56.8854 44.5993,52.9167 H 28.7243 L 19.8438,42.3333 h 15.875 l -3.3301,-3.9687 z m 23.8125,0 27.7513,33.0729 h 3.9687 L 55.8669,56.8854 h 15.875 L 68.4118,52.9167 H 52.5368 L 43.6563,42.3333 h 15.875 l -3.3301,-3.9687 z m 23.8125,0 3.33,3.9687 h 7.9375 l 24.4212,29.1042 h 3.9688 L 75.4062,42.3333 h 7.9375 l -3.33,-3.9687 z m 23.8125,0 27.7515,33.0729 h 3.969 L 103.492,56.8854 h 15.875 l -12.211,-14.5521 -3.33,-3.9687 z m 7.2987,3.9687 h 7.9375 3.9693 l 8.88,10.5834 h -11.906 z"
              id="path10359" />
      <path
              style="fill:#f6f704;fill-opacity:1;stroke:#0fee59;stroke-width:0.264583px;stroke-linecap:butt;stroke-linejoin:miter;stroke-opacity:1"
              d="m 12.5447,38.1943 15.5406,18.5208 h 15.875 l 8.8806,10.5834 h -15.875 l 3.3301,3.9687 H 60.1397 L 47.9291,56.7151 44.5991,52.7464 H 28.7241 L 19.8435,42.1631 h 15.875 l -3.3301,-3.9688 z m 23.8125,0 27.7513,33.0729 h 3.9687 L 55.8666,56.7151 h 15.875 L 68.4115,52.7464 H 52.5366 L 43.656,42.1631 h 15.875 l -3.3301,-3.9688 z m 23.8125,0 3.33,3.9688 h 7.9375 l 24.4213,29.1041 h 3.9687 L 75.406,42.1631 h 7.9375 l -3.3301,-3.9688 z m 23.8125,0 27.7508,33.0729 h 3.969 l -12.21,-14.5521 h 15.875 l -12.211,-14.552 -3.33,-3.9688 z m 7.2988,3.9688 h 7.9375 3.9685 l 8.881,10.5833 h -11.906 z"
              id="path10361" />
      <path
              style="fill:#f6f704;fill-opacity:1;stroke:#0fee59;stroke-width:0.264583px;stroke-linecap:butt;stroke-linejoin:miter;stroke-opacity:1"
              d="M 12.5444,38.024 28.085,56.5449 H 43.96 l 8.8806,10.5833 h -15.875 l 3.3301,3.9687 h 19.8437 l -12.2106,-14.552 -3.33,-3.9688 H 28.7238 L 19.8432,41.9928 h 15.875 L 32.3881,38.024 Z m 23.8125,0 27.7513,33.0729 h 3.9687 L 55.8663,56.5449 h 15.875 l -3.33,-3.9688 H 52.5363 L 43.6557,41.9928 h 15.875 L 56.2006,38.024 Z m 23.8125,0 3.33,3.9688 h 7.9375 l 24.4213,29.1041 h 3.9687 L 75.4057,41.9928 h 7.9375 L 80.0131,38.024 Z m 23.8125,0 27.7511,33.0729 h 3.969 l -12.211,-14.552 h 15.875 l -12.21,-14.5521 -3.33,-3.9688 z m 7.2988,3.9688 h 7.9375 3.9688 l 8.881,10.5833 h -11.907 z"
              id="path10363" />
      <path
              style="fill:#f6f704;fill-opacity:1;stroke:#0fee59;stroke-width:0.264583px;stroke-linecap:butt;stroke-linejoin:miter;stroke-opacity:1"
              d="m 12.5441,37.8538 15.5406,18.5208 h 15.875 l 8.8806,10.5833 h -15.875 l 3.3301,3.9688 H 60.1391 L 47.9285,56.3746 44.5985,52.4058 H 28.7235 L 19.8429,41.8225 h 15.875 l -3.3301,-3.9687 z m 23.8125,0 27.7513,33.0729 h 3.9687 L 55.866,56.3746 h 15.875 l -3.33,-3.9688 H 52.536 L 43.6554,41.8225 h 15.875 l -3.3301,-3.9687 z m 23.8125,0 3.33,3.9687 h 7.9375 l 24.4213,29.1042 h 3.9687 L 75.4054,41.8225 h 7.9375 l -3.3301,-3.9687 z m 23.8125,0 27.7514,33.0729 h 3.969 L 103.491,56.3746 h 15.875 l -12.211,-14.5521 -3.33,-3.9687 z m 7.2988,3.9687 h 7.9375 3.9691 l 8.88,10.5833 h -11.906 z"
              id="path10365" />
      <path
              style="fill:#f6f704;fill-opacity:1;stroke:#0fee59;stroke-width:0.264583px;stroke-linecap:butt;stroke-linejoin:miter;stroke-opacity:1"
              d="m 12.5438,37.6835 15.5406,18.5208 h 15.875 L 52.84,66.7876 H 36.965 l 3.3301,3.9688 H 60.1388 L 47.9282,56.2043 44.5982,52.2356 H 28.7232 L 19.8426,41.6522 h 15.875 l -3.3301,-3.9687 z m 23.8125,0 27.7513,33.0729 h 3.9687 L 55.8657,56.2043 h 15.875 l -3.33,-3.9687 H 52.5357 L 43.6551,41.6522 h 15.875 L 56.2,37.6835 Z m 23.8125,0 3.33,3.9687 h 7.9375 l 24.4213,29.1042 h 3.9687 L 75.4051,41.6522 h 7.9375 l -3.3301,-3.9687 z m 23.8125,0 27.7517,33.0729 h 3.968 l -12.21,-14.5521 h 15.875 l -12.211,-14.5521 -3.33,-3.9687 z m 7.2988,3.9687 h 7.9375 3.9684 l 8.881,10.5834 h -11.906 z"
              id="path10367" />
      <path
              style="fill:#f6f704;fill-opacity:1;stroke:#0fee59;stroke-width:0.264583px;stroke-linecap:butt;stroke-linejoin:miter;stroke-opacity:1"
              d="M 12.5435,37.5132 28.0841,56.034 h 15.875 l 8.8806,10.5834 h -15.875 l 3.3301,3.9687 H 60.1385 L 47.9279,56.034 44.5979,52.0653 H 28.7229 L 19.8423,41.482 h 15.875 l -3.3301,-3.9688 z m 23.8125,0 27.7513,33.0729 H 68.076 L 55.8654,56.034 h 15.875 l -3.33,-3.9687 H 52.5354 L 43.6548,41.482 h 15.875 l -3.3301,-3.9688 z m 23.8125,0 3.33,3.9688 H 71.436 L 95.8573,70.5861 H 99.826 L 75.4048,41.482 h 7.9375 l -3.3301,-3.9688 z m 23.8125,0 27.751,33.0729 h 3.969 L 103.49,56.034 h 15.875 l -12.21,-14.552 -3.33,-3.9688 z m 7.2988,3.9688 h 7.9375 3.9687 l 8.881,10.5833 H 100.16 Z"
              id="path10369" />
      <path
              style="fill:#f6f704;fill-opacity:1;stroke:#0fee59;stroke-width:0.264583px;stroke-linecap:butt;stroke-linejoin:miter;stroke-opacity:1"
              d="m 12.5432,37.3429 15.5406,18.5209 h 15.875 l 8.8806,10.5833 h -15.875 l 3.3301,3.9687 H 60.1382 L 47.9276,55.8638 44.5976,51.895 H 28.7226 L 19.842,41.3117 h 15.875 l -3.3301,-3.9688 z m 23.8125,0 27.7513,33.0729 h 3.9687 L 55.8651,55.8638 h 15.875 l -3.33,-3.9688 H 52.5351 L 43.6545,41.3117 h 15.875 l -3.3301,-3.9688 z m 23.8125,0 3.33,3.9688 h 7.9375 L 95.857,70.4158 h 3.9687 L 75.4045,41.3117 h 7.9375 l -3.3301,-3.9688 z m 23.8125,0 27.7513,33.0729 h 3.969 L 103.49,55.8638 h 15.875 l -12.211,-14.5521 -3.33,-3.9688 z m 7.2988,3.9688 h 7.9375 3.969 l 8.88,10.5833 H 100.16 Z"
              id="path10371" />
      <path
              style="fill:#f6f704;fill-opacity:1;stroke:#0fee59;stroke-width:0.264583px;stroke-linecap:butt;stroke-linejoin:miter;stroke-opacity:1"
              d="m 12.5429,37.1726 15.5406,18.5209 h 15.875 l 8.8806,10.5833 h -15.875 l 3.3301,3.9688 H 60.1379 L 47.9273,55.6935 44.5973,51.7247 H 28.7223 L 19.8417,41.1414 h 15.875 l -3.3301,-3.9688 z m 23.8125,0 27.7513,33.073 h 3.9687 L 55.8648,55.6935 h 15.875 l -3.33,-3.9688 H 52.5348 L 43.6542,41.1414 h 15.875 l -3.3301,-3.9688 z m 23.8125,0 3.33,3.9688 h 7.9375 l 24.4213,29.1042 h 3.9687 L 75.4042,41.1414 h 7.9375 l -3.3301,-3.9688 z m 23.8125,0 27.7516,33.073 H 115.7 L 103.49,55.6935 h 15.875 l -12.211,-14.5521 -3.33,-3.9688 z m 7.2988,3.9688 h 7.9375 3.9683 l 8.881,10.5833 H 100.16 Z"
              id="path10373" />
      <path
              style="fill:#f6f704;fill-opacity:1;stroke:#0fee59;stroke-width:0.264583px;stroke-linecap:butt;stroke-linejoin:miter;stroke-opacity:1"
              d="m 12.5426,37.0024 15.5407,18.5208 h 15.875 l 8.8805,10.5833 h -15.875 l 3.3301,3.9688 H 60.1376 L 47.927,55.5232 44.597,51.5545 H 28.722 L 19.8414,40.9711 h 15.875 l -3.3301,-3.9687 z m 23.8125,0 27.7513,33.0729 h 3.9687 L 55.8645,55.5232 h 15.875 l -3.33,-3.9687 H 52.5345 L 43.6539,40.9711 h 15.875 l -3.3301,-3.9687 z m 23.8125,0 3.33,3.9687 h 7.9375 l 24.4213,29.1042 h 3.9687 L 75.4039,40.9711 h 7.9375 l -3.3301,-3.9687 z m 23.8125,0 27.7509,33.0729 H 115.7 L 103.49,55.5232 h 15.875 l -12.211,-14.5521 -3.33,-3.9687 z m 7.2988,3.9687 h 7.9375 3.9686 l 8.881,10.5834 h -11.907 z"
              id="path10375" />
      <path
              style="fill:#f6f704;fill-opacity:1;stroke:#0fee59;stroke-width:0.264583px;stroke-linecap:butt;stroke-linejoin:miter;stroke-opacity:1"
              d="M 12.5423,36.8321 28.083,55.3529 h 15.875 l 8.8806,10.5834 h -15.875 l 3.33,3.9687 H 60.1373 L 47.9267,55.3529 44.5967,51.3842 H 28.7217 L 19.8411,40.8008 h 15.875 l -3.33,-3.9687 z m 23.8125,0 27.7513,33.0729 h 3.9687 L 55.8642,55.3529 h 15.875 l -3.33,-3.9687 H 52.5342 L 43.6536,40.8008 h 15.875 l -3.33,-3.9687 z m 23.8125,0 3.33,3.9687 h 7.9375 L 95.8561,69.905 h 3.9687 L 75.4036,40.8008 h 7.9375 L 80.011,36.8321 Z m 23.8125,0 27.7512,33.0729 H 115.7 L 103.489,55.3529 h 15.875 l -12.21,-14.5521 -3.33,-3.9687 z m 7.2988,3.9687 h 7.9375 3.9689 l 8.88,10.5834 h -11.906 z"
              id="path10377" />
      <path
              style="fill:#f6f704;fill-opacity:1;stroke:#0fee59;stroke-width:0.264583px;stroke-linecap:butt;stroke-linejoin:miter;stroke-opacity:1"
              d="m 12.542,36.6618 15.5407,18.5209 h 15.875 l 8.8806,10.5833 h -15.875 l 3.33,3.9687 H 60.137 l -12.2106,-14.552 -3.33,-3.9688 H 28.7214 L 19.8408,40.6306 h 15.875 l -3.33,-3.9688 z m 23.8125,0 27.7513,33.0729 h 3.9687 L 55.8639,55.1827 h 15.875 l -3.33,-3.9688 H 52.5339 L 43.6533,40.6306 h 15.875 l -3.33,-3.9688 z m 23.8125,0 3.33,3.9688 h 7.9375 l 24.4213,29.1041 h 3.9687 L 75.4033,40.6306 h 7.9375 l -3.33,-3.9688 z m 23.8125,0 27.7515,33.0729 h 3.969 l -12.211,-14.552 h 15.875 l -12.211,-14.5521 -3.33,-3.9688 z m 7.2988,3.9688 h 7.9375 3.9692 l 8.88,10.5833 h -11.906 z"
              id="path10379" />
      <path
              style="fill:#f6f704;fill-opacity:1;stroke:#0fee59;stroke-width:0.264583px;stroke-linecap:butt;stroke-linejoin:miter;stroke-opacity:1"
              d="m 12.5417,36.4915 15.5407,18.5209 h 15.875 L 52.838,65.5957 H 36.963 l 3.33,3.9688 H 60.1367 L 47.9261,55.0124 44.5961,51.0436 H 28.7211 L 19.8405,40.4603 h 15.875 l -3.33,-3.9688 z m 23.8125,0 27.7513,33.073 h 3.9687 L 55.8636,55.0124 h 15.875 l -3.33,-3.9688 H 52.5336 L 43.653,40.4603 h 15.875 l -3.33,-3.9688 z m 23.8125,0 3.33,3.9688 h 7.9375 l 24.4213,29.1042 h 3.9687 L 75.403,40.4603 h 7.9375 l -3.33,-3.9688 z m 23.8125,0 27.7508,33.073 h 3.969 l -12.21,-14.5521 h 15.875 l -12.211,-14.5521 -3.33,-3.9688 z m 7.2988,3.9688 h 7.9375 3.9685 l 8.881,10.5833 h -11.906 z"
              id="path10381" />
      <path
              style="fill:#f6f704;fill-opacity:1;stroke:#0fee59;stroke-width:0.264583px;stroke-linecap:butt;stroke-linejoin:miter;stroke-opacity:1"
              d="m 12.5414,36.3213 15.5407,18.5208 h 15.875 l 8.8806,10.5833 h -15.875 l 3.33,3.9688 H 60.1364 L 47.9258,54.8421 44.5958,50.8734 H 28.7208 L 19.8402,40.29 h 15.875 l -3.33,-3.9687 z m 23.8125,0 27.7513,33.0729 h 3.9687 L 55.8633,54.8421 h 15.875 l -3.33,-3.9687 H 52.5333 L 43.6527,40.29 h 15.875 l -3.33,-3.9687 z m 23.8125,0 3.33,3.9687 h 7.9375 l 24.4213,29.1042 h 3.9687 L 75.4027,40.29 h 7.9375 l -3.33,-3.9687 z m 23.8125,0 27.7511,33.0729 h 3.969 L 103.488,54.8421 h 15.875 l -12.21,-14.5521 -3.33,-3.9687 z m 7.2988,3.9687 h 7.9375 3.9688 l 8.881,10.5834 h -11.907 z"
              id="path10383" />
      <path
              style="fill:#f6f704;fill-opacity:1;stroke:#0fee59;stroke-width:0.264583px;stroke-linecap:butt;stroke-linejoin:miter;stroke-opacity:1"
              d="m 12.5411,36.151 15.5407,18.5208 h 15.875 l 8.8806,10.5834 h -15.875 l 3.33,3.9687 H 60.1361 L 47.9255,54.6718 44.5955,50.7031 H 28.7205 L 19.8399,40.1197 h 15.875 l -3.33,-3.9687 z m 23.8125,0 27.7513,33.0729 h 3.9687 L 55.863,54.6718 h 15.875 l -3.33,-3.9687 H 52.533 L 43.6524,40.1197 h 15.875 l -3.33,-3.9687 z m 23.8125,0 3.33,3.9687 h 7.9375 l 24.4213,29.1042 h 3.9687 L 75.4024,40.1197 h 7.9375 l -3.33,-3.9687 z m 23.8125,0 27.7514,33.0729 h 3.969 L 103.488,54.6718 h 15.875 l -12.211,-14.5521 -3.33,-3.9687 z m 7.2988,3.9687 h 7.9375 3.9691 l 8.88,10.5834 h -11.906 z"
              id="path10385" />
      <path
              style="fill:#f6f704;fill-opacity:1;stroke:#0fee59;stroke-width:0.264583px;stroke-linecap:butt;stroke-linejoin:miter;stroke-opacity:1"
              d="m 12.5408,35.9807 15.5407,18.5208 h 15.875 l 8.8806,10.5834 h -15.875 l 3.33,3.9687 H 60.1358 L 47.9252,54.5015 44.5952,50.5328 H 28.7202 L 19.8396,39.9495 h 15.875 l -3.33,-3.9688 z m 23.8125,0 27.7513,33.0729 h 3.9687 L 55.8627,54.5015 h 15.875 l -3.33,-3.9687 H 52.5327 L 43.6521,39.9495 h 15.875 l -3.33,-3.9688 z m 23.8125,0 3.33,3.9688 h 7.9375 l 24.4213,29.1041 h 3.9687 L 75.4021,39.9495 h 7.9375 l -3.33,-3.9688 z m 23.8125,0 27.7517,33.0729 h 3.968 l -12.21,-14.5521 h 15.875 l -12.211,-14.552 -3.33,-3.9688 z m 7.2988,3.9688 h 7.9375 3.9684 l 8.881,10.5833 h -11.906 z"
              id="path10387" />
      <path
              style="fill:#f6f704;fill-opacity:1;stroke:#0fee59;stroke-width:0.264583px;stroke-linecap:butt;stroke-linejoin:miter;stroke-opacity:1"
              d="m 12.5405,35.8104 15.5407,18.5209 h 15.875 l 8.8806,10.5833 h -15.875 l 3.33,3.9688 H 60.1355 L 47.9249,54.3313 44.5949,50.3625 H 28.7199 L 19.8393,39.7792 h 15.875 l -3.33,-3.9688 z m 23.8125,0 27.7513,33.073 H 68.073 L 55.8624,54.3313 h 15.875 l -3.33,-3.9688 H 52.5324 L 43.6518,39.7792 h 15.875 l -3.33,-3.9688 z m 23.8125,0 3.3301,3.9688 H 71.433 L 95.8543,68.8834 H 99.823 L 75.4018,39.7792 h 7.9375 l -3.33,-3.9688 z m 23.8125,0 27.751,33.073 h 3.969 L 103.487,54.3313 h 15.875 l -12.21,-14.5521 -3.33,-3.9688 z m 7.2988,3.9688 h 7.9375 3.9687 l 8.881,10.5833 h -11.907 z"
              id="path10389" />
      <path
              style="fill:#f6f704;fill-opacity:1;stroke:#0fee59;stroke-width:0.264583px;stroke-linecap:butt;stroke-linejoin:miter;stroke-opacity:1"
              d="M 12.5402,35.6402 28.0809,54.161 h 15.875 l 8.8806,10.5833 h -15.875 l 3.33,3.9688 H 60.1353 L 47.9246,54.161 44.5946,50.1922 H 28.7196 L 19.839,39.6089 h 15.875 l -3.33,-3.9687 z m 23.8125,0 27.7513,33.0729 h 3.9688 L 55.8621,54.161 h 15.875 l -3.33,-3.9688 H 52.5321 L 43.6515,39.6089 h 15.875 l -3.33,-3.9687 z m 23.8125,0 3.3301,3.9687 h 7.9375 L 95.854,68.7131 h 3.9688 L 75.4015,39.6089 h 7.9375 l -3.33,-3.9687 z m 23.8125,0 27.7513,33.0729 h 3.969 L 103.487,54.161 h 15.875 l -12.21,-14.5521 -3.331,-3.9687 z m 7.2988,3.9687 h 7.9375 3.969 l 8.88,10.5833 h -11.906 z"
              id="path10391" />
      <path
              style="fill:#f6f704;fill-opacity:1;stroke:#0fee59;stroke-width:0.264583px;stroke-linecap:butt;stroke-linejoin:miter;stroke-opacity:1"
              d="m 12.5399,35.4699 15.5407,18.5208 h 15.875 l 8.8806,10.5834 h -15.875 l 3.33,3.9687 H 60.135 L 47.9243,53.9907 44.5943,50.022 H 28.7193 L 19.8387,39.4386 h 15.875 l -3.33,-3.9687 z m 23.8125,0 27.7513,33.0729 h 3.9688 L 55.8618,53.9907 h 15.875 l -3.33,-3.9687 H 52.5318 L 43.6512,39.4386 h 15.875 l -3.33,-3.9687 z m 23.8125,0 3.3301,3.9687 h 7.9375 l 24.4212,29.1042 h 3.9688 L 75.4012,39.4386 h 7.9375 l -3.33,-3.9687 z m 23.8125,0 27.7516,33.0729 h 3.968 l -12.21,-14.5521 h 15.875 l -12.211,-14.5521 -3.33,-3.9687 z m 7.2988,3.9687 h 7.9375 3.9683 l 8.881,10.5834 h -11.906 z"
              id="path10393" />
      <path
              style="fill:#f6f704;fill-opacity:1;stroke:#0fee59;stroke-width:0.264583px;stroke-linecap:butt;stroke-linejoin:miter;stroke-opacity:1"
              d="m 12.5396,35.2996 15.5407,18.5208 h 15.875 l 8.8806,10.5834 h -15.875 l 3.33,3.9687 H 60.1347 L 47.924,53.8204 44.594,49.8517 H 28.719 L 19.8384,39.2684 h 15.875 l -3.33,-3.9688 z m 23.8125,0 27.7513,33.0729 h 3.9688 L 55.8615,53.8204 h 15.875 l -3.33,-3.9687 H 52.5315 L 43.6509,39.2684 h 15.875 l -3.33,-3.9688 z m 23.8125,0 3.3301,3.9688 h 7.9375 l 24.4212,29.1041 h 3.9688 L 75.4009,39.2684 h 7.9375 l -3.33,-3.9688 z m 23.8125,0 27.7509,33.0729 h 3.969 l -12.21,-14.5521 h 15.875 l -12.211,-14.552 -3.33,-3.9688 z m 7.2988,3.9688 h 7.9375 3.9686 l 8.881,10.5833 h -11.906 z"
              id="path10395" />
      <path
              style="fill:#f6f704;fill-opacity:1;stroke:#0fee59;stroke-width:0.264583px;stroke-linecap:butt;stroke-linejoin:miter;stroke-opacity:1"
              d="M 12.5393,35.1293 28.08,53.6502 h 15.875 l 8.8806,10.5833 h -15.875 l 3.33,3.9687 h 19.8438 l -12.2107,-14.552 -3.33,-3.9688 H 28.7187 L 19.8381,39.0981 h 15.875 l -3.33,-3.9688 z m 23.8125,0 27.7513,33.0729 h 3.9688 L 55.8612,53.6502 h 15.875 l -3.33,-3.9688 H 52.5312 L 43.6506,39.0981 h 15.875 l -3.33,-3.9688 z m 23.8125,0 3.3301,3.9688 h 7.9375 l 24.4212,29.1041 h 3.9688 L 75.4006,39.0981 h 7.9375 l -3.33,-3.9688 z m 23.8125,0 27.7512,33.0729 h 3.969 l -12.211,-14.552 h 15.875 l -12.21,-14.5521 -3.33,-3.9688 z m 7.2988,3.9688 h 7.9375 3.9689 l 8.88,10.5833 h -11.906 z"
              id="path10397" />
      <path
              style="fill:#f6f704;fill-opacity:1;stroke:#0fee59;stroke-width:0.264583px;stroke-linecap:butt;stroke-linejoin:miter;stroke-opacity:1"
              d="m 12.539,34.9591 15.5407,18.5208 h 15.875 l 8.8806,10.5833 h -15.875 l 3.33,3.9688 H 60.1341 L 47.9234,53.4799 44.5934,49.5111 H 28.7184 L 19.8378,38.9278 h 15.875 l -3.33,-3.9687 z m 23.8125,0 27.7513,33.0729 h 3.9688 L 55.8609,53.4799 h 15.875 l -3.33,-3.9688 H 52.5309 L 43.6503,38.9278 h 15.875 l -3.33,-3.9687 z m 23.8125,0 3.3301,3.9687 h 7.9375 L 95.8528,68.032 h 3.9688 L 75.4003,38.9278 h 7.9375 l -3.33,-3.9687 z m 23.8125,0 27.7515,33.0729 h 3.969 L 103.486,53.4799 h 15.875 L 107.15,38.9278 103.82,34.9591 Z m 7.2988,3.9687 h 7.9375 3.9692 l 8.88,10.5833 h -11.906 z"
              id="path10399" />
      <path
              style="fill:#f6f704;fill-opacity:1;stroke:#0fee59;stroke-width:0.264583px;stroke-linecap:butt;stroke-linejoin:miter;stroke-opacity:1"
              d="m 12.5387,34.7888 15.5407,18.5208 h 15.875 L 52.835,63.8929 H 36.96 l 3.33,3.9688 H 60.1338 L 47.9231,53.3096 44.5931,49.3409 H 28.7181 L 19.8375,38.7575 h 15.875 l -3.33,-3.9687 z m 23.8125,0 27.7513,33.0729 h 3.9688 L 55.8606,53.3096 h 15.875 l -3.33,-3.9687 H 52.5306 L 43.65,38.7575 h 15.875 l -3.33,-3.9687 z m 23.8125,0 3.3301,3.9687 h 7.9375 l 24.4212,29.1042 h 3.9688 L 75.4,38.7575 h 7.9375 l -3.33,-3.9687 z m 23.8125,0 27.7518,33.0729 h 3.968 l -12.21,-14.5521 h 15.875 L 107.15,38.7575 103.82,34.7888 Z m 7.2988,3.9687 h 7.9375 3.9685 l 8.881,10.5834 h -11.906 z"
              id="path10401" />
      <path
              style="fill:#f6f704;fill-opacity:1;stroke:#0fee59;stroke-width:0.264583px;stroke-linecap:butt;stroke-linejoin:miter;stroke-opacity:1"
              d="m 12.5384,34.6185 15.5407,18.5208 h 15.875 l 8.8806,10.5834 h -15.875 l 3.33,3.9687 H 60.1335 L 47.9228,53.1393 44.5928,49.1706 H 28.7178 L 19.8372,38.5873 h 15.875 l -3.33,-3.9688 z m 23.8125,0 27.7513,33.0729 H 68.071 L 55.8603,53.1393 H 71.7354 L 68.4053,49.1706 H 52.5303 L 43.6497,38.5873 h 15.875 l -3.33,-3.9688 z m 23.8125,0 3.3301,3.9688 H 71.431 L 95.8522,67.6914 H 99.821 L 75.3997,38.5873 h 7.9375 l -3.33,-3.9688 z m 23.8125,0 27.7511,33.0729 h 3.969 L 103.485,53.1393 h 15.875 l -12.21,-14.552 -3.33,-3.9688 z m 7.2988,3.9688 h 7.9375 3.9688 l 8.881,10.5833 h -11.907 z"
              id="path10403" />
      <path
              style="fill:#f6f704;fill-opacity:1;stroke:#0fee59;stroke-width:0.264583px;stroke-linecap:butt;stroke-linejoin:miter;stroke-opacity:1"
              d="m 12.5381,34.4482 15.5407,18.5209 h 15.875 l 8.8806,10.5833 h -15.875 l 3.33,3.9687 H 60.1332 L 47.9226,52.9691 44.5925,49.0003 H 28.7175 L 19.8369,38.417 h 15.875 l -3.33,-3.9688 z m 23.8125,0 27.7513,33.0729 h 3.9688 L 55.8601,52.9691 h 15.875 L 68.405,49.0003 H 52.53 L 43.6494,38.417 h 15.875 l -3.33,-3.9688 z m 23.8125,0 3.3301,3.9688 h 7.9375 l 24.4212,29.1041 h 3.9688 L 75.3994,38.417 h 7.9375 l -3.33,-3.9688 z m 23.8125,0 27.7514,33.0729 h 3.969 l -12.211,-14.552 h 15.875 l -12.211,-14.5521 -3.33,-3.9688 z m 7.2988,3.9688 h 7.9375 3.9691 l 8.88,10.5833 h -11.906 z"
              id="path10405" />
      <path
              style="fill:#f6f704;fill-opacity:1;stroke:#0fee59;stroke-width:0.264583px;stroke-linecap:butt;stroke-linejoin:miter;stroke-opacity:1"
              d="m 12.5379,34.2779 15.5406,18.5209 h 15.875 l 8.8806,10.5833 h -15.875 l 3.33,3.9688 H 60.1329 L 47.9223,52.7988 44.5922,48.83 H 28.7172 L 19.8366,38.2467 h 15.875 l -3.33,-3.9688 z m 23.8125,0 27.7512,33.073 h 3.9688 L 55.8598,52.7988 h 15.875 L 68.4047,48.83 H 52.5297 L 43.6491,38.2467 h 15.875 l -3.33,-3.9688 z m 23.8124,0 3.3301,3.9688 h 7.9375 l 24.4212,29.1042 h 3.9688 L 75.3991,38.2467 h 7.9375 l -3.33,-3.9688 z m 23.8125,0 27.7517,33.073 h 3.968 l -12.21,-14.5521 h 15.875 l -12.211,-14.5521 -3.33,-3.9688 z m 7.2988,3.9688 h 7.9375 3.9684 l 8.881,10.5833 h -11.906 z"
              id="path10407" />
      <path
              style="fill:#f6f704;fill-opacity:1;stroke:#0fee59;stroke-width:0.264583px;stroke-linecap:butt;stroke-linejoin:miter;stroke-opacity:1"
              d="m 12.5376,34.1077 15.5406,18.5208 h 15.875 l 8.8806,10.5833 h -15.875 l 3.33,3.9688 H 60.1326 L 47.922,52.6285 44.5919,48.6598 H 28.7169 L 19.8363,38.0764 h 15.875 l -3.33,-3.9687 z m 23.8125,0 27.7512,33.0729 h 3.9688 L 55.8595,52.6285 h 15.875 L 68.4044,48.6598 H 52.5294 L 43.6488,38.0764 h 15.875 l -3.33,-3.9687 z m 23.8125,0 3.33,3.9687 h 7.9375 l 24.4212,29.1042 h 3.9688 L 75.3988,38.0764 h 7.9375 l -3.33,-3.9687 z m 23.8125,0 27.7509,33.0729 h 3.969 L 103.484,52.6285 h 15.875 l -12.21,-14.5521 -3.33,-3.9687 z m 7.2987,3.9687 h 7.9375 3.9687 l 8.881,10.5834 h -11.907 z"
              id="path10409" />
      <path
              style="fill:#f6f704;fill-opacity:1;stroke:#0fee59;stroke-width:0.264583px;stroke-linecap:butt;stroke-linejoin:miter;stroke-opacity:1"
              d="m 12.5373,33.9374 15.5406,18.5208 h 15.875 l 8.8806,10.5834 h -15.875 l 3.33,3.9687 H 60.1323 L 47.9217,52.4582 44.5916,48.4895 H 28.7166 L 19.836,37.9061 h 15.875 l -3.33,-3.9687 z m 23.8125,0 27.7512,33.0729 h 3.9688 L 55.8592,52.4582 h 15.875 L 68.4041,48.4895 H 52.5291 L 43.6485,37.9061 h 15.875 l -3.33,-3.9687 z m 23.8125,0 3.33,3.9687 h 7.9375 L 95.851,67.0103 h 3.9688 L 75.3985,37.9061 h 7.9375 l -3.33,-3.9687 z m 23.8125,0 27.7512,33.0729 h 3.969 L 103.484,52.4582 h 15.875 l -12.21,-14.5521 -3.33,-3.9687 z m 7.2987,3.9687 h 7.9375 3.969 l 8.88,10.5834 h -11.906 z"
              id="path10411" />
      <path
              style="fill:#f6f704;fill-opacity:1;stroke:#0fee59;stroke-width:0.264583px;stroke-linecap:butt;stroke-linejoin:miter;stroke-opacity:1"
              d="M 12.537,33.7671 28.0776,52.288 h 15.875 l 8.8806,10.5833 h -15.875 l 3.33,3.9687 H 60.132 L 47.9214,52.288 44.5913,48.3192 H 28.7163 L 19.8357,37.7359 h 15.875 l -3.33,-3.9688 z m 23.8125,0 27.7512,33.0729 h 3.9688 L 55.8589,52.288 h 15.875 L 68.4038,48.3192 H 52.5288 L 43.6482,37.7359 h 15.875 l -3.33,-3.9688 z m 23.8125,0 3.33,3.9688 h 7.9375 L 95.8507,66.84 h 3.9688 L 75.3982,37.7359 h 7.9375 l -3.33,-3.9688 z m 23.8125,0 27.7515,33.0729 h 3.968 l -12.21,-14.552 h 15.875 l -12.211,-14.5521 -3.33,-3.9688 z m 7.2987,3.9688 h 7.9375 3.9683 l 8.881,10.5833 h -11.906 z"
              id="path10413" />
      <path
              style="fill:#f6f704;fill-opacity:1;stroke:#0fee59;stroke-width:0.264583px;stroke-linecap:butt;stroke-linejoin:miter;stroke-opacity:1"
              d="m 12.5367,33.5968 15.5406,18.5209 h 15.875 l 8.8806,10.5833 h -15.875 l 3.33,3.9688 H 60.1317 L 47.9211,52.1177 44.591,48.1489 H 28.716 L 19.8354,37.5656 h 15.875 l -3.33,-3.9688 z m 23.8125,0 27.7512,33.073 h 3.9688 L 55.8586,52.1177 h 15.875 L 68.4035,48.1489 H 52.5285 L 43.6479,37.5656 h 15.875 l -3.33,-3.9688 z m 23.8125,0 3.33,3.9688 h 7.9375 l 24.4212,29.1042 h 3.9688 L 75.3979,37.5656 h 7.9375 l -3.33,-3.9688 z m 23.8125,0 27.7508,33.073 h 3.969 l -12.21,-14.5521 h 15.875 l -12.211,-14.5521 -3.33,-3.9688 z m 7.2987,3.9688 h 7.9375 3.9686 l 8.881,10.5833 h -11.906 z"
              id="path10415" />
      <path
              style="fill:#f6f704;fill-opacity:1;stroke:#0fee59;stroke-width:0.264583px;stroke-linecap:butt;stroke-linejoin:miter;stroke-opacity:1"
              d="M 12.5364,33.4266 28.077,51.9474 h 15.875 l 8.8806,10.5833 h -15.875 l 3.33,3.9688 H 60.1314 L 47.9208,51.9474 44.5907,47.9787 H 28.7157 L 19.8351,37.3953 h 15.875 l -3.33,-3.9687 z m 23.8125,0 27.7512,33.0729 h 3.9688 L 55.8583,51.9474 h 15.875 L 68.4032,47.9787 H 52.5282 L 43.6476,37.3953 h 15.875 l -3.33,-3.9687 z m 23.8125,0 3.33,3.9687 h 7.9375 l 24.4212,29.1042 h 3.9688 L 75.3976,37.3953 h 7.9375 l -3.33,-3.9687 z m 23.8125,0 27.7511,33.0729 h 3.969 L 103.483,51.9474 h 15.875 l -12.21,-14.5521 -3.33,-3.9687 z m 7.2987,3.9687 h 7.9375 3.9689 l 8.88,10.5834 h -11.906 z"
              id="path10417" />
      <path
              style="fill:#f6f704;fill-opacity:1;stroke:#0fee59;stroke-width:0.264583px;stroke-linecap:butt;stroke-linejoin:miter;stroke-opacity:1"
              d="m 12.5361,33.2563 15.5406,18.5208 h 15.875 l 8.8806,10.5834 h -15.875 l 3.33,3.9687 H 60.1311 L 47.9205,51.7771 44.5904,47.8084 H 28.7154 L 19.8348,37.225 h 15.8751 l -3.3301,-3.9687 z m 23.8125,0 27.7512,33.0729 h 3.9688 L 55.858,51.7771 H 71.733 L 68.4029,47.8084 H 52.5279 L 43.6474,37.225 h 15.8749 l -3.33,-3.9687 z m 23.8125,0 3.33,3.9687 h 7.9375 l 24.4212,29.1042 h 3.9688 L 75.3973,37.225 h 7.9375 l -3.33,-3.9687 z m 23.8125,0 27.7514,33.0729 h 3.969 L 103.483,51.7771 h 15.875 l -12.211,-14.5521 -3.33,-3.9687 z m 7.2987,3.9687 h 7.9375 3.9692 l 8.88,10.5834 h -11.906 z"
              id="path10419" />
      <path
              style="fill:#f6f704;fill-opacity:1;stroke:#0fee59;stroke-width:0.264583px;stroke-linecap:butt;stroke-linejoin:miter;stroke-opacity:1"
              d="m 12.5358,33.086 15.5406,18.5208 h 15.875 L 52.832,62.1902 H 36.957 l 3.3301,3.9687 H 60.1308 L 47.9202,51.6068 44.5901,47.6381 H 28.7151 L 19.8346,37.0548 h 15.875 L 32.3795,33.086 Z m 23.8125,0 27.7513,33.0729 h 3.9687 L 55.8577,51.6068 h 15.875 L 68.4026,47.6381 H 52.5276 L 43.6471,37.0548 h 15.875 L 56.192,33.086 Z m 23.8125,0 3.33,3.9688 h 7.9375 l 24.4213,29.1041 h 3.9687 L 75.3971,37.0548 h 7.9375 L 80.0045,33.086 Z m 23.8125,0 27.7517,33.0729 h 3.968 l -12.21,-14.5521 h 15.875 l -12.211,-14.552 -3.33,-3.9688 z m 7.2988,3.9688 h 7.9375 3.9684 l 8.881,10.5833 h -11.906 z"
              id="path10421" />
      <path
              style="fill:#f6f704;fill-opacity:1;stroke:#0fee59;stroke-width:0.264583px;stroke-linecap:butt;stroke-linejoin:miter;stroke-opacity:1"
              d="m 12.5355,32.9157 15.5406,18.5209 h 15.875 l 8.8806,10.5833 h -15.875 l 3.3301,3.9688 H 60.1305 L 47.9199,51.4366 44.5899,47.4678 H 28.7149 L 19.8343,36.8845 h 15.875 l -3.3301,-3.9688 z m 23.8125,0 27.7513,33.073 H 68.068 L 55.8574,51.4366 h 15.875 L 68.4023,47.4678 H 52.5274 L 43.6468,36.8845 h 15.875 l -3.3301,-3.9688 z m 23.8125,0 3.33,3.9688 H 71.428 L 95.8493,65.9887 H 99.818 L 75.3968,36.8845 h 7.9375 l -3.3301,-3.9688 z m 23.8125,0 27.751,33.073 h 3.969 L 103.482,51.4366 h 15.875 l -12.21,-14.5521 -3.33,-3.9688 z m 7.2988,3.9688 h 7.9375 3.9687 l 8.881,10.5833 h -11.907 z"
              id="path10423" />
      <path
              style="fill:#f6f704;fill-opacity:1;stroke:#0fee59;stroke-width:0.264583px;stroke-linecap:butt;stroke-linejoin:miter;stroke-opacity:1"
              d="m 12.5352,32.7455 15.5406,18.5208 h 15.875 l 8.8806,10.5833 h -15.875 l 3.3301,3.9688 H 60.1302 L 47.9196,51.2663 44.5896,47.2975 H 28.7146 L 19.834,36.7142 h 15.875 l -3.3301,-3.9687 z m 23.8125,0 27.7513,33.0729 h 3.9687 L 55.8571,51.2663 h 15.875 l -3.33,-3.9688 H 52.5271 L 43.6465,36.7142 h 15.875 l -3.3301,-3.9687 z m 23.8125,0 3.33,3.9687 h 7.9375 L 95.849,65.8184 h 3.9687 L 75.3965,36.7142 h 7.9375 l -3.3301,-3.9687 z m 23.8125,0 27.7513,33.0729 h 3.969 L 103.482,51.2663 h 15.875 l -12.211,-14.5521 -3.33,-3.9687 z m 7.2988,3.9687 h 7.9375 3.969 l 8.88,10.5833 h -11.906 z"
              id="path10425" />
      <path
              style="fill:#f6f704;fill-opacity:1;stroke:#0fee59;stroke-width:0.264583px;stroke-linecap:butt;stroke-linejoin:miter;stroke-opacity:1"
              d="M 12.5349,32.5752 28.0755,51.096 h 15.875 l 8.8806,10.5834 h -15.875 l 3.3301,3.9687 H 60.1299 L 47.9193,51.096 44.5893,47.1273 H 28.7143 L 19.8337,36.5439 h 15.875 l -3.3301,-3.9687 z m 23.8125,0 27.7513,33.0729 h 3.9687 L 55.8568,51.096 h 15.875 l -3.33,-3.9687 H 52.5268 L 43.6462,36.5439 h 15.875 l -3.3301,-3.9687 z m 23.8125,0 3.33,3.9687 h 7.9375 l 24.4213,29.1042 h 3.9687 L 75.3962,36.5439 h 7.9375 l -3.3301,-3.9687 z m 23.8125,0 27.7516,33.0729 h 3.968 L 103.482,51.096 h 15.875 l -12.211,-14.5521 -3.33,-3.9687 z m 7.2988,3.9687 h 7.9375 3.9683 l 8.881,10.5834 h -11.906 z"
              id="path10427" />
      <path
              style="fill:#f6f704;fill-opacity:1;stroke:#0fee59;stroke-width:0.264583px;stroke-linecap:butt;stroke-linejoin:miter;stroke-opacity:1"
              d="m 12.5346,32.4049 15.5406,18.5208 h 15.875 l 8.8806,10.5834 h -15.875 l 3.3301,3.9687 H 60.1296 L 47.919,50.9257 44.589,46.957 H 28.714 L 19.8334,36.3737 h 15.875 l -3.3301,-3.9688 z m 23.8125,0 27.7513,33.0729 h 3.9687 L 55.8565,50.9257 h 15.875 l -3.33,-3.9687 H 52.5265 L 43.6459,36.3737 h 15.875 l -3.3301,-3.9688 z m 23.8125,0 3.33,3.9688 h 7.9375 l 24.4213,29.1041 h 3.9687 L 75.3959,36.3737 h 7.9375 l -3.3301,-3.9688 z m 23.8125,0 27.7509,33.0729 h 3.969 L 103.481,50.9257 h 15.875 l -12.21,-14.552 -3.33,-3.9688 z m 7.2988,3.9688 h 7.9375 3.9686 l 8.881,10.5833 h -11.907 z"
              id="path10429" />
      <path
              style="fill:#f6f704;fill-opacity:1;stroke:#0fee59;stroke-width:0.264583px;stroke-linecap:butt;stroke-linejoin:miter;stroke-opacity:1"
              d="m 12.5343,32.2346 15.5406,18.5209 h 15.875 l 8.8806,10.5833 h -15.875 l 3.3301,3.9687 h 19.8437 l -12.2106,-14.552 -3.33,-3.9688 H 28.7137 L 19.8331,36.2034 h 15.875 L 32.378,32.2346 Z m 23.8125,0 27.7513,33.0729 h 3.9687 L 55.8562,50.7555 h 15.875 l -3.33,-3.9688 H 52.5262 L 43.6456,36.2034 h 15.875 l -3.3301,-3.9688 z m 23.8125,0 3.33,3.9688 h 7.9375 l 24.4213,29.1041 h 3.9687 L 75.3956,36.2034 h 7.9375 L 80.003,32.2346 Z m 23.8125,0 27.7512,33.0729 h 3.969 l -12.211,-14.552 h 15.875 l -12.21,-14.5521 -3.33,-3.9688 z m 7.2988,3.9688 h 7.9375 3.9689 l 8.88,10.5833 h -11.906 z"
              id="path10431" />
      <path
              style="fill:#f6f704;fill-opacity:1;stroke:#0fee59;stroke-width:0.264583px;stroke-linecap:butt;stroke-linejoin:miter;stroke-opacity:1"
              d="m 12.534,32.0644 15.5406,18.5208 h 15.875 l 8.8806,10.5833 h -15.875 l 3.3301,3.9688 H 60.129 L 47.9184,50.5852 44.5884,46.6164 H 28.7134 L 19.8328,36.0331 h 15.875 l -3.3301,-3.9687 z m 23.8125,0 27.7513,33.0729 h 3.9687 L 55.8559,50.5852 h 15.875 l -3.33,-3.9688 H 52.5259 L 43.6453,36.0331 h 15.875 l -3.3301,-3.9687 z m 23.8125,0 3.33,3.9687 h 7.9375 l 24.4213,29.1042 h 3.9687 L 75.3953,36.0331 h 7.9375 l -3.3301,-3.9687 z m 23.8125,0 27.7515,33.0729 h 3.969 L 103.481,50.5852 h 15.875 l -12.211,-14.5521 -3.33,-3.9687 z m 7.2988,3.9687 h 7.9375 3.9692 l 8.88,10.5833 h -11.906 z"
              id="path10433" />
      <path
              style="fill:#f6f704;fill-opacity:1;stroke:#0fee59;stroke-width:0.264583px;stroke-linecap:butt;stroke-linejoin:miter;stroke-opacity:1"
              d="m 12.5337,31.8941 15.5407,18.5208 h 15.875 l 8.8805,10.5833 H 36.9549 L 40.285,64.967 H 60.1287 L 47.9181,50.4149 44.5881,46.4462 H 28.7131 L 19.8325,35.8628 h 15.875 l -3.3301,-3.9687 z m 23.8125,0 27.7513,33.0729 h 3.9687 L 55.8556,50.4149 h 15.875 l -3.33,-3.9687 H 52.5256 L 43.645,35.8628 H 59.52 l -3.3301,-3.9687 z m 23.8125,0 3.33,3.9687 h 7.9375 L 95.8475,64.967 h 3.9687 L 75.395,35.8628 h 7.9375 l -3.3301,-3.9687 z m 23.8125,0 27.7508,33.0729 h 3.969 l -12.21,-14.5521 h 15.875 l -12.211,-14.5521 -3.33,-3.9687 z m 7.2988,3.9687 h 7.9375 3.9685 l 8.881,10.5834 h -11.906 z"
              id="path10435" />
      <path
              style="fill:#f6f704;fill-opacity:1;stroke:#0fee59;stroke-width:0.264583px;stroke-linecap:butt;stroke-linejoin:miter;stroke-opacity:1"
              d="m 12.5334,31.7238 15.5407,18.5208 h 15.875 l 8.8805,10.5834 h -15.875 l 3.3301,3.9687 H 60.1284 L 47.9178,50.2446 44.5878,46.2759 H 28.7128 L 19.8322,35.6926 h 15.875 l -3.3301,-3.9688 z m 23.8125,0 27.7513,33.0729 h 3.9687 L 55.8553,50.2446 h 15.875 l -3.33,-3.9687 H 52.5253 L 43.6447,35.6926 h 15.875 l -3.3301,-3.9688 z m 23.8125,0 3.33,3.9688 h 7.9375 l 24.4213,29.1041 h 3.9687 L 75.3947,35.6926 h 7.9375 l -3.3301,-3.9688 z m 23.8125,0 27.7511,33.0729 h 3.969 L 103.48,50.2446 h 15.875 l -12.21,-14.552 -3.33,-3.9688 z m 7.2988,3.9688 h 7.9375 3.9688 l 8.881,10.5833 H 100.15 Z"
              id="path10437" />
      <path
              style="fill:#f6f704;fill-opacity:1;stroke:#0fee59;stroke-width:0.264583px;stroke-linecap:butt;stroke-linejoin:miter;stroke-opacity:1"
              d="m 12.5331,31.5535 15.5407,18.5209 h 15.875 l 8.8806,10.5833 h -15.875 l 3.33,3.9687 h 19.8437 l -12.2106,-14.552 -3.33,-3.9688 H 28.7125 L 19.8319,35.5223 h 15.875 l -3.33,-3.9688 z m 23.8125,0 27.7513,33.0729 h 3.9687 L 55.855,50.0744 H 71.73 L 68.4,46.1056 H 52.525 L 43.6444,35.5223 h 15.875 l -3.33,-3.9688 z m 23.8125,0 3.33,3.9688 h 7.9375 l 24.4213,29.1041 h 3.9687 L 75.3944,35.5223 h 7.9375 l -3.3301,-3.9688 z m 23.8125,0 27.7514,33.0729 h 3.969 L 103.48,50.0744 h 15.875 l -12.211,-14.5521 -3.33,-3.9688 z m 7.2988,3.9688 h 7.9375 3.9691 l 8.88,10.5833 H 100.15 Z"
              id="path10439" />
      <path
              style="fill:#f6f704;fill-opacity:1;stroke:#0fee59;stroke-width:0.264583px;stroke-linecap:butt;stroke-linejoin:miter;stroke-opacity:1"
              d="m 12.5328,31.3833 15.5407,18.5208 h 15.875 l 8.8806,10.5833 h -15.875 l 3.33,3.9688 H 60.1278 L 47.9172,49.9041 44.5872,45.9353 H 28.7122 L 19.8316,35.352 h 15.875 l -3.33,-3.9687 z m 23.8125,0 27.7513,33.0729 h 3.9687 L 55.8547,49.9041 h 15.875 l -3.33,-3.9688 H 52.5247 L 43.6441,35.352 h 15.875 l -3.33,-3.9687 z m 23.8125,0 3.33,3.9687 h 7.9375 l 24.4213,29.1042 h 3.9687 L 75.3941,35.352 h 7.9375 l -3.33,-3.9687 z m 23.8125,0 27.7517,33.0729 h 3.968 L 103.48,49.9041 h 15.875 l -12.211,-14.5521 -3.33,-3.9687 z m 7.2988,3.9687 h 7.9375 3.9684 l 8.881,10.5833 H 100.15 Z"
              id="path10441" />
      <path
              style="fill:#f6f704;fill-opacity:1;stroke:#0fee59;stroke-width:0.264583px;stroke-linecap:butt;stroke-linejoin:miter;stroke-opacity:1"
              d="m 12.5325,31.213 15.5407,18.5208 h 15.875 l 8.8806,10.5833 h -15.875 l 3.33,3.9688 H 60.1275 L 47.9169,49.7338 44.5869,45.7651 H 28.7119 L 19.8313,35.1817 h 15.875 l -3.33,-3.9687 z m 23.8125,0 27.7513,33.0729 H 68.065 L 55.8544,49.7338 h 15.875 l -3.33,-3.9687 H 52.5244 L 43.6438,35.1817 h 15.875 l -3.33,-3.9687 z m 23.8125,0 3.33,3.9687 H 71.425 L 95.8463,64.2859 H 99.815 L 75.3938,35.1817 h 7.9375 l -3.33,-3.9687 z m 23.8125,0 27.751,33.0729 h 3.969 L 103.479,49.7338 h 15.875 l -12.21,-14.5521 -3.33,-3.9687 z m 7.2988,3.9687 h 7.9375 3.9687 l 8.881,10.5834 h -11.907 z"
              id="path10443" />
      <path
              style="fill:#f6f704;fill-opacity:1;stroke:#0fee59;stroke-width:0.264583px;stroke-linecap:butt;stroke-linejoin:miter;stroke-opacity:1"
              d="m 12.5322,31.0427 15.5407,18.5208 h 15.875 l 8.8806,10.5834 h -15.875 l 3.33,3.9687 H 60.1272 L 47.9166,49.5635 44.5866,45.5948 H 28.7116 L 19.831,35.0114 h 15.875 l -3.33,-3.9687 z m 23.8125,0 27.7513,33.0729 h 3.9687 L 55.8541,49.5635 h 15.875 l -3.33,-3.9687 H 52.5241 L 43.6435,35.0114 h 15.875 l -3.33,-3.9687 z m 23.8125,0 3.33,3.9687 h 7.9375 L 95.846,64.1156 h 3.9687 L 75.3935,35.0114 h 7.9375 l -3.33,-3.9687 z m 23.8125,0 27.7513,33.0729 h 3.969 L 103.479,49.5635 h 15.875 l -12.211,-14.5521 -3.33,-3.9687 z m 7.2988,3.9687 h 7.9375 3.969 l 8.88,10.5834 h -11.906 z"
              id="path10445" />
      <path
              style="fill:#f6f704;fill-opacity:1;stroke:#0fee59;stroke-width:0.264583px;stroke-linecap:butt;stroke-linejoin:miter;stroke-opacity:1"
              d="m 12.5319,30.8724 15.5407,18.5209 h 15.875 l 8.8806,10.5833 h -15.875 l 3.33,3.9687 h 19.8437 l -12.2106,-14.552 -3.33,-3.9688 H 28.7113 L 19.8307,34.8412 h 15.875 l -3.33,-3.9688 z m 23.8125,0 27.7513,33.0729 h 3.9687 L 55.8538,49.3933 h 15.875 l -3.33,-3.9688 H 52.5238 L 43.6432,34.8412 h 15.875 l -3.33,-3.9688 z m 23.8125,0 3.33,3.9688 h 7.9375 l 24.4213,29.1041 h 3.9687 L 75.3932,34.8412 h 7.9375 l -3.33,-3.9688 z m 23.8125,0 27.7516,33.0729 h 3.968 l -12.21,-14.552 h 15.875 l -12.211,-14.5521 -3.33,-3.9688 z m 7.2988,3.9688 h 7.9375 3.9683 l 8.881,10.5833 h -11.906 z"
              id="path10447" />
      <path
              style="fill:#f6f704;fill-opacity:1;stroke:#0fee59;stroke-width:0.264583px;stroke-linecap:butt;stroke-linejoin:miter;stroke-opacity:1"
              d="M 12.5316,30.7021 28.0723,49.223 h 15.875 l 8.8806,10.5833 h -15.875 l 3.33,3.9688 H 60.1266 L 47.916,49.223 44.586,45.2542 H 28.711 L 19.8304,34.6709 h 15.875 l -3.33,-3.9688 z m 23.8125,0 27.7513,33.073 h 3.9687 L 55.8535,49.223 h 15.875 l -3.33,-3.9688 H 52.5235 L 43.6429,34.6709 h 15.875 l -3.33,-3.9688 z m 23.8125,0 3.33,3.9688 h 7.9375 l 24.4213,29.1042 h 3.9687 L 75.3929,34.6709 h 7.9375 l -3.33,-3.9688 z m 23.8125,0 27.7509,33.073 h 3.969 L 103.479,49.223 h 15.875 l -12.211,-14.5521 -3.33,-3.9688 z m 7.2988,3.9688 h 7.9375 3.9686 l 8.881,10.5833 h -11.907 z"
              id="path10449" />
      <path
              style="fill:#f6f704;fill-opacity:1;stroke:#0fee59;stroke-width:0.264583px;stroke-linecap:butt;stroke-linejoin:miter;stroke-opacity:1"
              d="M 12.5313,30.5319 28.072,49.0527 h 15.875 l 8.8806,10.5833 h -15.875 l 3.33,3.9688 H 60.1263 L 47.9157,49.0527 44.5857,45.084 H 28.7107 L 19.8301,34.5006 h 15.875 l -3.33,-3.9687 z m 23.8125,0 27.7513,33.0729 h 3.9687 L 55.8532,49.0527 h 15.875 l -3.33,-3.9687 H 52.5232 L 43.6426,34.5006 h 15.875 l -3.33,-3.9687 z m 23.8125,0 3.3301,3.9687 h 7.9374 l 24.4213,29.1042 h 3.9687 L 75.3926,34.5006 h 7.9375 l -3.33,-3.9687 z m 23.8125,0 27.7512,33.0729 h 3.969 L 103.478,49.0527 h 15.875 l -12.21,-14.5521 -3.33,-3.9687 z m 7.2988,3.9687 h 7.9375 3.9689 l 8.88,10.5834 h -11.906 z"
              id="path10451" />
      <path
              style="fill:#f6f704;fill-opacity:1;stroke:#0fee59;stroke-width:0.264583px;stroke-linecap:butt;stroke-linejoin:miter;stroke-opacity:1"
              d="m 12.531,30.3616 15.5407,18.5208 h 15.875 l 8.8806,10.5834 h -15.875 l 3.33,3.9687 H 60.1261 L 47.9154,48.8824 44.5854,44.9137 H 28.7104 L 19.8298,34.3303 h 15.875 l -3.33,-3.9687 z m 23.8125,0 27.7513,33.0729 h 3.9688 L 55.8529,48.8824 h 15.875 l -3.33,-3.9687 H 52.5229 L 43.6423,34.3303 h 15.875 l -3.33,-3.9687 z m 23.8125,0 3.3301,3.9687 h 7.9375 l 24.4212,29.1042 h 3.9688 L 75.3923,34.3303 h 7.9375 l -3.33,-3.9687 z m 23.8125,0 27.7515,33.0729 h 3.969 L 103.478,48.8824 h 15.875 l -12.211,-14.5521 -3.33,-3.9687 z m 7.2988,3.9687 h 7.9375 3.9692 l 8.88,10.5834 h -11.906 z"
              id="path10453" />
      <path
              style="fill:#f6f704;fill-opacity:1;stroke:#0fee59;stroke-width:0.264583px;stroke-linecap:butt;stroke-linejoin:miter;stroke-opacity:1"
              d="m 12.5307,30.1913 15.5407,18.5208 h 15.875 L 52.827,59.2955 H 36.952 l 3.33,3.9687 H 60.1258 L 47.9151,48.7121 44.5851,44.7434 H 28.7101 L 19.8295,34.1601 h 15.875 l -3.33,-3.9688 z m 23.8125,0 27.7513,33.0729 h 3.9688 L 55.8526,48.7121 h 15.875 l -3.33,-3.9687 H 52.5226 L 43.642,34.1601 h 15.875 l -3.33,-3.9688 z m 23.8125,0 3.3301,3.9688 h 7.9375 l 24.4212,29.1041 h 3.9688 L 75.392,34.1601 h 7.9375 l -3.33,-3.9688 z m 23.8125,0 27.7518,33.0729 h 3.968 l -12.21,-14.5521 h 15.875 l -12.211,-14.552 -3.33,-3.9688 z m 7.2988,3.9688 h 7.9375 3.9685 l 8.881,10.5833 h -11.906 z"
              id="path10455" />
      <path
              style="fill:#f6f704;fill-opacity:1;stroke:#0fee59;stroke-width:0.264583px;stroke-linecap:butt;stroke-linejoin:miter;stroke-opacity:1"
              d="m 12.5304,30.021 15.5407,18.5209 h 15.875 l 8.8806,10.5833 h -15.875 l 3.33,3.9688 H 60.1255 L 47.9148,48.5419 44.5848,44.5731 H 28.7098 L 19.8292,33.9898 h 15.875 l -3.33,-3.9688 z m 23.8125,0 27.7513,33.073 H 68.063 L 55.8523,48.5419 h 15.875 l -3.33,-3.9688 H 52.5223 L 43.6417,33.9898 h 15.875 l -3.33,-3.9688 z m 23.8125,0 3.3301,3.9688 H 71.423 L 95.8442,63.094 H 99.813 L 75.3917,33.9898 h 7.9375 l -3.33,-3.9688 z m 23.8125,0 27.7511,33.073 h 3.969 L 103.477,48.5419 h 15.875 l -12.21,-14.5521 -3.33,-3.9688 z m 7.2988,3.9688 h 7.9375 3.9688 l 8.881,10.5833 h -11.907 z"
              id="path10457" />
      <path
              style="fill:#f6f704;fill-opacity:1;stroke:#0fee59;stroke-width:0.264583px;stroke-linecap:butt;stroke-linejoin:miter;stroke-opacity:1"
              d="m 12.5301,29.8508 15.5407,18.5208 h 15.875 l 8.8806,10.5833 h -15.875 l 3.33,3.9688 H 60.1252 L 47.9145,48.3716 44.5845,44.4028 H 28.7095 L 19.8289,33.8195 h 15.875 l -3.33,-3.9687 z m 23.8125,0 27.7513,33.0729 h 3.9688 L 55.852,48.3716 h 15.875 l -3.33,-3.9688 H 52.522 L 43.6414,33.8195 h 15.875 l -3.33,-3.9687 z m 23.8125,0 3.3301,3.9687 h 7.9375 l 24.4212,29.1042 h 3.9688 L 75.3914,33.8195 h 7.9375 l -3.33,-3.9687 z m 23.8125,0 27.7514,33.0729 h 3.969 L 103.477,48.3716 h 15.875 l -12.211,-14.5521 -3.33,-3.9687 z m 7.2988,3.9687 h 7.9375 3.9691 l 8.88,10.5833 h -11.906 z"
              id="path10459" />
      <path
              style="fill:#f6f704;fill-opacity:1;stroke:#0fee59;stroke-width:0.264583px;stroke-linecap:butt;stroke-linejoin:miter;stroke-opacity:1"
              d="m 12.5298,29.6805 15.5407,18.5208 h 15.875 l 8.8806,10.5834 h -15.875 l 3.33,3.9687 H 60.1249 L 47.9142,48.2013 44.5842,44.2326 H 28.7092 L 19.8286,33.6492 h 15.875 l -3.33,-3.9687 z m 23.8125,0 27.7513,33.0729 h 3.9688 L 55.8517,48.2013 h 15.875 l -3.33,-3.9687 H 52.5217 L 43.6411,33.6492 h 15.875 l -3.33,-3.9687 z m 23.8125,0 3.3301,3.9687 h 7.9375 l 24.4212,29.1042 h 3.9688 L 75.3911,33.6492 h 7.9375 l -3.33,-3.9687 z m 23.8125,0 27.7517,33.0729 h 3.968 l -12.21,-14.5521 h 15.875 l -12.211,-14.5521 -3.33,-3.9687 z m 7.2988,3.9687 h 7.9375 3.9684 l 8.881,10.5834 h -11.906 z"
              id="path10461" />
      <path
              style="fill:#f6f704;fill-opacity:1;stroke:#0fee59;stroke-width:0.264583px;stroke-linecap:butt;stroke-linejoin:miter;stroke-opacity:1"
              d="M 12.5295,29.5102 28.0702,48.031 h 15.875 l 8.8806,10.5834 h -15.875 l 3.33,3.9687 H 60.1246 L 47.9139,48.031 44.5839,44.0623 H 28.7089 L 19.8283,33.479 h 15.875 l -3.33,-3.9688 z m 23.8125,0 27.7513,33.0729 h 3.9688 L 55.8514,48.031 h 15.875 l -3.33,-3.9687 H 52.5214 L 43.6408,33.479 h 15.875 l -3.33,-3.9688 z m 23.8125,0 3.3301,3.9688 h 7.9375 l 24.4212,29.1041 h 3.9688 L 75.3908,33.479 h 7.9375 l -3.33,-3.9688 z m 23.8125,0 27.751,33.0729 h 3.969 L 103.476,48.031 h 15.875 l -12.21,-14.552 -3.33,-3.9688 z m 7.2988,3.9688 h 7.9375 3.9687 l 8.881,10.5833 h -11.907 z"
              id="path10463" />
      <path
              style="fill:#f6f704;fill-opacity:1;stroke:#0fee59;stroke-width:0.264583px;stroke-linecap:butt;stroke-linejoin:miter;stroke-opacity:1"
              d="m 12.5292,29.3399 15.5407,18.5209 h 15.875 l 8.8806,10.5833 h -15.875 l 3.33,3.9688 H 60.1243 L 47.9136,47.8608 44.5836,43.892 H 28.7086 L 19.828,33.3087 h 15.875 l -3.33,-3.9688 z m 23.8125,0 27.7513,33.073 h 3.9688 L 55.8511,47.8608 H 71.7262 L 68.3961,43.892 H 52.5211 L 43.6405,33.3087 h 15.875 l -3.33,-3.9688 z m 23.8125,0 3.3301,3.9688 h 7.9375 L 95.843,62.4129 h 3.9688 L 75.3905,33.3087 h 7.9375 l -3.33,-3.9688 z m 23.8125,0 27.7513,33.073 h 3.969 L 103.476,47.8608 h 15.875 l -12.21,-14.5521 -3.331,-3.9688 z m 7.2988,3.9688 h 7.9375 3.969 l 8.88,10.5833 h -11.906 z"
              id="path10465" />
      <path
              style="fill:#f6f704;fill-opacity:1;stroke:#0fee59;stroke-width:0.264583px;stroke-linecap:butt;stroke-linejoin:miter;stroke-opacity:1"
              d="m 12.5289,29.1697 15.5407,18.5208 h 15.875 l 8.8806,10.5833 h -15.875 l 3.33,3.9688 H 60.124 L 47.9134,47.6905 44.5833,43.7217 H 28.7083 L 19.8277,33.1384 h 15.875 l -3.33,-3.9687 z m 23.8125,0 27.7513,33.0729 h 3.9688 L 55.8509,47.6905 h 15.875 L 68.3958,43.7217 H 52.5208 L 43.6402,33.1384 h 15.875 l -3.33,-3.9687 z m 23.8125,0 3.3301,3.9687 h 7.9375 l 24.4212,29.1042 h 3.9688 L 75.3902,33.1384 h 7.9375 l -3.33,-3.9687 z m 23.8125,0 27.7516,33.0729 h 3.968 l -12.21,-14.5521 h 15.875 L 107.14,33.1384 103.81,29.1697 Z m 7.2988,3.9687 h 7.9375 3.9683 l 8.881,10.5833 h -11.906 z"
              id="path10467" />
      <path
              style="fill:#f6f704;fill-opacity:1;stroke:#0fee59;stroke-width:0.264583px;stroke-linecap:butt;stroke-linejoin:miter;stroke-opacity:1"
              d="m 12.5287,28.9994 15.5406,18.5208 h 15.875 l 8.8806,10.5833 h -15.875 l 3.33,3.9688 H 60.1237 L 47.9131,47.5202 44.583,43.5515 H 28.708 L 19.8274,32.9681 h 15.875 l -3.33,-3.9687 z m 23.8125,0 27.7512,33.0729 h 3.9688 L 55.8506,47.5202 h 15.875 L 68.3955,43.5515 H 52.5205 L 43.6399,32.9681 h 15.875 l -3.33,-3.9687 z m 23.8125,0 3.33,3.9687 h 7.9375 l 24.4212,29.1042 h 3.9688 L 75.3899,32.9681 h 7.9375 l -3.33,-3.9687 z m 23.8124,0 27.7509,33.0729 h 3.969 l -12.21,-14.5521 h 15.875 L 107.14,32.9681 103.81,28.9994 Z m 7.2988,3.9687 h 7.9375 3.9686 l 8.881,10.5834 h -11.906 z"
              id="path10469" />
      <path
              style="fill:#f6f704;fill-opacity:1;stroke:#0fee59;stroke-width:0.264583px;stroke-linecap:butt;stroke-linejoin:miter;stroke-opacity:1"
              d="M 12.5284,28.8291 28.069,47.3499 h 15.875 l 8.8806,10.5834 h -15.875 l 3.33,3.9687 H 60.1234 L 47.9128,47.3499 44.5827,43.3812 H 28.7077 L 19.8271,32.7979 h 15.875 l -3.33,-3.9688 z m 23.8125,0 27.7512,33.0729 h 3.9688 L 55.8503,47.3499 h 15.875 L 68.3952,43.3812 H 52.5202 L 43.6396,32.7979 h 15.875 l -3.33,-3.9688 z m 23.8125,0 3.33,3.9688 h 7.9375 L 95.8421,61.902 h 3.9688 L 75.3896,32.7979 h 7.9375 l -3.33,-3.9688 z m 23.8125,0 27.7511,33.0729 h 3.969 L 103.475,47.3499 h 15.875 l -12.21,-14.552 -3.33,-3.9688 z m 7.2987,3.9688 h 7.9375 3.9689 l 8.88,10.5833 h -11.906 z"
              id="path10471" />
      <path
              style="fill:#f6f704;fill-opacity:1;stroke:#0fee59;stroke-width:0.264583px;stroke-linecap:butt;stroke-linejoin:miter;stroke-opacity:1"
              d="m 12.5281,28.6588 15.5406,18.5209 h 15.875 l 8.8806,10.5833 h -15.875 l 3.33,3.9687 H 60.1231 L 47.9125,47.1797 44.5824,43.2109 H 28.7074 L 19.8268,32.6276 h 15.875 l -3.33,-3.9688 z m 23.8125,0 27.7512,33.0729 h 3.9688 L 55.85,47.1797 H 71.725 L 68.3949,43.2109 H 52.5199 L 43.6393,32.6276 h 15.875 l -3.33,-3.9688 z m 23.8125,0 3.33,3.9688 h 7.9375 l 24.4212,29.1041 h 3.9688 L 75.3893,32.6276 h 7.9375 l -3.33,-3.9688 z m 23.8125,0 27.7514,33.0729 h 3.969 l -12.211,-14.552 h 15.875 l -12.211,-14.5521 -3.33,-3.9688 z m 7.2987,3.9688 h 7.9375 3.9692 l 8.88,10.5833 h -11.906 z"
              id="path10473" />
      <path
              style="fill:#f6f704;fill-opacity:1;stroke:#0fee59;stroke-width:0.264583px;stroke-linecap:butt;stroke-linejoin:miter;stroke-opacity:1"
              d="m 12.5278,28.4886 15.5406,18.5208 h 15.875 L 52.824,57.5927 H 36.949 l 3.33,3.9688 H 60.1228 L 47.9122,47.0094 44.5821,43.0406 H 28.7071 L 19.8265,32.4573 h 15.875 l -3.33,-3.9687 z m 23.8125,0 27.7512,33.0729 h 3.9688 L 55.8497,47.0094 h 15.875 L 68.3946,43.0406 H 52.5196 L 43.639,32.4573 h 15.875 l -3.33,-3.9687 z m 23.8125,0 3.33,3.9687 h 7.9375 l 24.4212,29.1042 h 3.9688 L 75.389,32.4573 h 7.9375 l -3.33,-3.9687 z m 23.8125,0 27.7517,33.0729 h 3.968 l -12.21,-14.5521 h 15.875 l -12.211,-14.5521 -3.33,-3.9687 z m 7.2987,3.9687 h 7.9375 3.9685 l 8.881,10.5833 h -11.906 z"
              id="path10475" />
      <path
              style="fill:#f6f704;fill-opacity:1;stroke:#0fee59;stroke-width:0.264583px;stroke-linecap:butt;stroke-linejoin:miter;stroke-opacity:1"
              d="m 12.5275,28.3183 15.5406,18.5208 h 15.875 l 8.8806,10.5833 h -15.875 l 3.33,3.9688 H 60.1225 L 47.9119,46.8391 44.5818,42.8704 H 28.7068 L 19.8262,32.287 h 15.875 l -3.33,-3.9687 z m 23.8125,0 27.7512,33.0729 H 68.06 L 55.8494,46.8391 h 15.875 L 68.3943,42.8704 H 52.5193 L 43.6387,32.287 h 15.875 l -3.33,-3.9687 z m 23.8125,0 3.33,3.9687 H 71.42 L 95.8412,61.3912 H 99.81 L 75.3887,32.287 h 7.9375 l -3.33,-3.9687 z m 23.8125,0 27.751,33.0729 h 3.969 L 103.474,46.8391 h 15.875 l -12.21,-14.5521 -3.33,-3.9687 z m 7.2987,3.9687 h 7.9375 3.9688 l 8.881,10.5834 h -11.907 z"
              id="path10477" />
      <path
              style="fill:#f6f704;fill-opacity:1;stroke:#0fee59;stroke-width:0.264583px;stroke-linecap:butt;stroke-linejoin:miter;stroke-opacity:1"
              d="m 12.5272,28.148 15.5406,18.5208 h 15.875 l 8.8806,10.5834 h -15.875 l 3.33,3.9687 H 60.1222 L 47.9116,46.6688 44.5815,42.7001 H 28.7065 L 19.8259,32.1167 h 15.875 l -3.33,-3.9687 z m 23.8125,0 27.7512,33.0729 h 3.9688 L 55.8491,46.6688 h 15.875 L 68.394,42.7001 H 52.519 L 43.6384,32.1167 h 15.875 l -3.33,-3.9687 z m 23.8125,0 3.33,3.9687 h 7.9375 l 24.4212,29.1042 h 3.9688 L 75.3884,32.1167 h 7.9375 l -3.33,-3.9687 z m 23.8125,0 27.7513,33.0729 h 3.969 L 103.474,46.6688 h 15.875 l -12.211,-14.5521 -3.33,-3.9687 z m 7.2987,3.9687 h 7.9375 3.9691 l 8.88,10.5834 h -11.906 z"
              id="path10479" />
      <path
              style="fill:#f6f704;fill-opacity:1;stroke:#0fee59;stroke-width:0.264583px;stroke-linecap:butt;stroke-linejoin:miter;stroke-opacity:1"
              d="m 12.5269,27.9777 15.5406,18.5209 h 15.875 l 8.8806,10.5833 h -15.875 l 3.33,3.9687 H 60.1219 L 47.9113,46.4986 44.5812,42.5298 H 28.7062 L 19.8257,31.9465 h 15.875 l -3.3301,-3.9688 z m 23.8125,0 27.7512,33.0729 h 3.9688 L 55.8488,46.4986 h 15.875 L 68.3937,42.5298 H 52.5187 L 43.6382,31.9465 h 15.875 l -3.3301,-3.9688 z m 23.8125,0 3.33,3.9688 h 7.9375 l 24.4212,29.1041 h 3.9688 L 75.3881,31.9465 h 7.9375 l -3.33,-3.9688 z m 23.8125,0 27.7516,33.0729 h 3.968 l -12.21,-14.552 h 15.875 l -12.211,-14.5521 -3.33,-3.9688 z m 7.2987,3.9688 h 7.9375 3.9684 l 8.881,10.5833 h -11.906 z"
              id="path10481" />
      <path
              style="fill:#f6f704;fill-opacity:1;stroke:#0fee59;stroke-width:0.264583px;stroke-linecap:butt;stroke-linejoin:miter;stroke-opacity:1"
              d="m 12.5266,27.8074 15.5406,18.5209 h 15.875 l 8.8806,10.5833 h -15.875 l 3.3301,3.9688 H 60.1216 L 47.911,46.3283 44.5809,42.3595 H 28.7059 L 19.8254,31.7762 h 15.875 l -3.3301,-3.9688 z m 23.8125,0 27.7513,33.073 h 3.9687 L 55.8485,46.3283 h 15.875 L 68.3934,42.3595 H 52.5184 L 43.6379,31.7762 h 15.875 l -3.3301,-3.9688 z m 23.8125,0 3.33,3.9688 h 7.9375 l 24.4213,29.1042 h 3.9687 L 75.3879,31.7762 h 7.9375 l -3.3301,-3.9688 z m 23.8125,0 27.7509,33.073 h 3.969 L 103.473,46.3283 h 15.875 l -12.21,-14.5521 -3.33,-3.9688 z m 7.2988,3.9688 h 7.9375 3.9686 l 8.881,10.5833 h -11.907 z"
              id="path10483" />
      <path
              style="fill:#f6f704;fill-opacity:1;stroke:#0fee59;stroke-width:0.264583px;stroke-linecap:butt;stroke-linejoin:miter;stroke-opacity:1"
              d="M 12.5263,27.6372 28.0669,46.158 h 15.875 l 8.8806,10.5833 h -15.875 l 3.3301,3.9688 H 60.1213 L 47.9107,46.158 44.5807,42.1893 H 28.7057 L 19.8251,31.6059 h 15.875 L 32.37,27.6372 Z m 23.8125,0 27.7513,33.0729 h 3.9687 L 55.8482,46.158 h 15.875 l -3.33,-3.9687 H 52.5182 L 43.6376,31.6059 h 15.875 l -3.3301,-3.9687 z m 23.8125,0 3.33,3.9687 h 7.9375 l 24.4213,29.1042 h 3.9687 L 75.3876,31.6059 h 7.9375 L 79.995,27.6372 Z m 23.8125,0 27.7512,33.0729 h 3.969 L 103.473,46.158 h 15.875 l -12.21,-14.5521 -3.33,-3.9687 z m 7.2988,3.9687 h 7.9375 3.9689 l 8.88,10.5834 h -11.906 z"
              id="path10485" />
      <path
              style="fill:#f6f704;fill-opacity:1;stroke:#0fee59;stroke-width:0.264583px;stroke-linecap:butt;stroke-linejoin:miter;stroke-opacity:1"
              d="m 12.526,27.4669 15.5406,18.5208 h 15.875 l 8.8806,10.5834 h -15.875 l 3.3301,3.9687 H 60.121 L 47.9104,45.9877 44.5804,42.019 H 28.7054 L 19.8248,31.4356 h 15.875 l -3.3301,-3.9687 z m 23.8125,0 27.7513,33.0729 h 3.9687 L 55.8479,45.9877 h 15.875 l -3.33,-3.9687 H 52.5179 L 43.6373,31.4356 h 15.875 l -3.3301,-3.9687 z m 23.8125,0 3.33,3.9687 h 7.9375 l 24.4213,29.1042 h 3.9687 L 75.3873,31.4356 h 7.9375 l -3.3301,-3.9687 z m 23.8125,0 27.7515,33.0729 h 3.969 L 103.473,45.9877 h 15.875 l -12.211,-14.5521 -3.33,-3.9687 z m 7.2988,3.9687 h 7.9375 3.9692 l 8.88,10.5834 h -11.906 z"
              id="path10487" />
      <path
              style="fill:#f6f704;fill-opacity:1;stroke:#0fee59;stroke-width:0.264583px;stroke-linecap:butt;stroke-linejoin:miter;stroke-opacity:1"
              d="m 12.5257,27.2966 15.5406,18.5209 h 15.875 l 8.8806,10.5833 h -15.875 l 3.3301,3.9687 h 19.8437 l -12.2106,-14.552 -3.33,-3.9688 H 28.7051 L 19.8245,31.2654 h 15.875 l -3.3301,-3.9688 z m 23.8125,0 27.7513,33.0729 h 3.9687 L 55.8476,45.8175 h 15.875 l -3.33,-3.9688 H 52.5176 L 43.637,31.2654 h 15.875 l -3.3301,-3.9688 z m 23.8125,0 3.33,3.9688 h 7.9375 l 24.4213,29.1041 h 3.9687 L 75.387,31.2654 h 7.9375 l -3.3301,-3.9688 z m 23.8125,0 27.7508,33.0729 h 3.969 l -12.21,-14.552 h 15.875 l -12.211,-14.5521 -3.33,-3.9688 z m 7.2988,3.9688 h 7.9375 3.9685 l 8.881,10.5833 h -11.906 z"
              id="path10489" />
      <path
              style="fill:#f6f704;fill-opacity:1;stroke:#0fee59;stroke-width:0.264583px;stroke-linecap:butt;stroke-linejoin:miter;stroke-opacity:1"
              d="M 12.5254,27.1263 28.066,45.6472 h 15.875 l 8.8806,10.5833 h -15.875 l 3.3301,3.9688 H 60.1204 L 47.9098,45.6472 44.5798,41.6784 H 28.7048 L 19.8242,31.0951 h 15.875 l -3.3301,-3.9688 z m 23.8125,0 27.7513,33.073 h 3.9687 L 55.8473,45.6472 h 15.875 l -3.33,-3.9688 H 52.5173 L 43.6367,31.0951 h 15.875 l -3.3301,-3.9688 z m 23.8125,0 3.33,3.9688 h 7.9375 l 24.4213,29.1042 h 3.9687 L 75.3867,31.0951 h 7.9375 l -3.3301,-3.9688 z m 23.8125,0 27.7511,33.073 h 3.969 L 103.472,45.6472 h 15.875 l -12.21,-14.5521 -3.33,-3.9688 z m 7.2988,3.9688 h 7.9375 3.9688 l 8.881,10.5833 h -11.907 z"
              id="path10491" />
      <path
              style="fill:#f6f704;fill-opacity:1;stroke:#0fee59;stroke-width:0.264583px;stroke-linecap:butt;stroke-linejoin:miter;stroke-opacity:1"
              d="m 12.5251,26.9561 15.5406,18.5208 h 15.875 l 8.8806,10.5833 h -15.875 l 3.3301,3.9688 H 60.1201 L 47.9095,45.4769 44.5795,41.5081 H 28.7045 L 19.8239,30.9248 h 15.875 l -3.3301,-3.9687 z m 23.8125,0 27.7513,33.0729 h 3.9687 L 55.847,45.4769 h 15.875 l -3.33,-3.9688 H 52.517 L 43.6364,30.9248 h 15.875 l -3.3301,-3.9687 z m 23.8125,0 3.33,3.9687 h 7.9375 L 95.8389,60.029 h 3.9687 L 75.3864,30.9248 h 7.9375 l -3.3301,-3.9687 z m 23.8125,0 27.7514,33.0729 h 3.969 L 103.472,45.4769 h 15.875 l -12.211,-14.5521 -3.33,-3.9687 z m 7.2988,3.9687 h 7.9375 3.9691 l 8.88,10.5833 h -11.906 z"
              id="path10493" />
      <path
              style="fill:#f6f704;fill-opacity:1;stroke:#0fee59;stroke-width:0.264583px;stroke-linecap:butt;stroke-linejoin:miter;stroke-opacity:1"
              d="m 12.5248,26.7858 15.5406,18.5208 h 15.875 L 52.821,55.89 H 36.946 l 3.3301,3.9687 H 60.1198 L 47.9092,45.3066 44.5792,41.3379 H 28.7042 L 19.8236,30.7545 h 15.875 l -3.3301,-3.9687 z m 23.8125,0 27.7513,33.0729 h 3.9687 L 55.8467,45.3066 h 15.875 l -3.33,-3.9687 H 52.5167 L 43.6361,30.7545 h 15.875 L 56.181,26.7858 Z m 23.8125,0 3.33,3.9687 h 7.9375 l 24.4213,29.1042 h 3.9687 L 75.3861,30.7545 h 7.9375 l -3.3301,-3.9687 z m 23.8125,0 27.7517,33.0729 h 3.968 l -12.21,-14.5521 h 15.875 l -12.211,-14.5521 -3.33,-3.9687 z m 7.2988,3.9687 h 7.9375 3.9684 l 8.881,10.5834 h -11.906 z"
              id="path10495" />
      <path
              style="fill:#f6f704;fill-opacity:1;stroke:#0fee59;stroke-width:0.264583px;stroke-linecap:butt;stroke-linejoin:miter;stroke-opacity:1"
              d="m 12.5245,26.6155 15.5407,18.5208 h 15.875 l 8.8805,10.5834 h -15.875 l 3.3301,3.9687 H 60.1195 L 47.9089,45.1363 44.5789,41.1676 H 28.7039 L 19.8233,30.5843 h 15.875 l -3.3301,-3.9688 z m 23.8125,0 27.7513,33.0729 H 68.057 L 55.8464,45.1363 h 15.875 l -3.33,-3.9687 H 52.5164 L 43.6358,30.5843 h 15.875 l -3.3301,-3.9688 z m 23.8125,0 3.33,3.9688 H 71.417 L 95.8383,59.6884 H 99.807 L 75.3858,30.5843 h 7.9375 l -3.3301,-3.9688 z m 23.8125,0 27.751,33.0729 h 3.969 L 103.471,45.1363 h 15.875 l -12.21,-14.552 -3.33,-3.9688 z m 7.2988,3.9688 h 7.9375 3.9687 l 8.881,10.5833 h -11.907 z"
              id="path10497" />
      <path
              style="fill:#f6f704;fill-opacity:1;stroke:#0fee59;stroke-width:0.264583px;stroke-linecap:butt;stroke-linejoin:miter;stroke-opacity:1"
              d="m 12.5242,26.4452 15.5407,18.5209 h 15.875 l 8.8805,10.5833 h -15.875 l 3.3301,3.9688 H 60.1192 L 47.9086,44.9661 44.5786,40.9973 H 28.7036 L 19.823,30.414 h 15.875 l -3.33,-3.9688 z m 23.8125,0 27.7513,33.073 h 3.9687 L 55.8461,44.9661 h 15.875 l -3.33,-3.9688 H 52.5161 L 43.6355,30.414 h 15.875 l -3.3301,-3.9688 z m 23.8125,0 3.33,3.9688 h 7.9375 L 95.838,59.5182 h 3.9687 L 75.3855,30.414 h 7.9375 l -3.3301,-3.9688 z m 23.8125,0 27.7513,33.073 h 3.969 L 103.471,44.9661 h 15.875 l -12.211,-14.5521 -3.33,-3.9688 z m 7.2988,3.9688 h 7.9375 3.969 l 8.88,10.5833 h -11.906 z"
              id="path10499" />
      <path
              style="fill:#f6f704;fill-opacity:1;stroke:#0fee59;stroke-width:0.264583px;stroke-linecap:butt;stroke-linejoin:miter;stroke-opacity:1"
              d="m 12.5239,26.275 15.5407,18.5208 h 15.875 l 8.8806,10.5833 h -15.875 l 3.33,3.9688 H 60.1189 L 47.9083,44.7958 44.5783,40.827 H 28.7033 L 19.8227,30.2437 h 15.875 l -3.33,-3.9687 z m 23.8125,0 27.7513,33.0729 h 3.9687 L 55.8458,44.7958 h 15.875 l -3.33,-3.9688 H 52.5158 L 43.6352,30.2437 h 15.875 l -3.33,-3.9687 z m 23.8125,0 3.33,3.9687 h 7.9375 l 24.4213,29.1042 h 3.9687 L 75.3852,30.2437 h 7.9375 l -3.33,-3.9687 z m 23.8125,0 27.7516,33.0729 h 3.968 l -12.21,-14.5521 h 15.875 l -12.211,-14.5521 -3.33,-3.9687 z m 7.2988,3.9687 h 7.9375 3.9683 l 8.881,10.5833 h -11.906 z"
              id="path10501" />
      <path
              style="fill:#f6f704;fill-opacity:1;stroke:#0fee59;stroke-width:0.264583px;stroke-linecap:butt;stroke-linejoin:miter;stroke-opacity:1"
              d="m 12.5236,26.1047 15.5407,18.5208 h 15.875 l 8.8806,10.5833 h -15.875 l 3.33,3.9688 H 60.1186 L 47.908,44.6255 44.578,40.6568 H 28.703 L 19.8224,30.0734 h 15.875 l -3.33,-3.9687 z m 23.8125,0 27.7513,33.0729 h 3.9687 L 55.8455,44.6255 h 15.875 l -3.33,-3.9687 H 52.5155 L 43.6349,30.0734 h 15.875 l -3.33,-3.9687 z m 23.8125,0 3.33,3.9687 h 7.9375 l 24.4213,29.1042 h 3.9687 L 75.3849,30.0734 h 7.9375 l -3.33,-3.9687 z m 23.8125,0 27.7509,33.0729 h 3.969 l -12.21,-14.5521 h 15.875 l -12.211,-14.5521 -3.33,-3.9687 z m 7.2988,3.9687 h 7.9375 3.9686 l 8.881,10.5834 H 100.14 Z"
              id="path10503" />
      <path
              style="fill:#f6f704;fill-opacity:1;stroke:#0fee59;stroke-width:0.264583px;stroke-linecap:butt;stroke-linejoin:miter;stroke-opacity:1"
              d="M 12.5233,25.9344 28.064,44.4552 h 15.875 l 8.8806,10.5834 h -15.875 l 3.33,3.9687 H 60.1183 L 47.9077,44.4552 44.5777,40.4865 H 28.7027 L 19.8221,29.9032 h 15.875 l -3.33,-3.9688 z m 23.8125,0 27.7513,33.0729 h 3.9687 L 55.8452,44.4552 h 15.875 l -3.33,-3.9687 H 52.5152 L 43.6346,29.9032 h 15.875 l -3.33,-3.9688 z m 23.8125,0 3.33,3.9688 h 7.9375 l 24.4213,29.1041 h 3.9687 L 75.3846,29.9032 h 7.9375 l -3.33,-3.9688 z m 23.8125,0 27.7512,33.0729 h 3.969 L 103.47,44.4552 h 15.875 l -12.21,-14.552 -3.33,-3.9688 z m 7.2988,3.9688 h 7.9375 3.9689 l 8.88,10.5833 H 100.14 Z"
              id="path10505" />
      <path
              style="fill:#f6f704;fill-opacity:1;stroke:#0fee59;stroke-width:0.264583px;stroke-linecap:butt;stroke-linejoin:miter;stroke-opacity:1"
              d="M 12.523,25.7641 28.0637,44.285 h 15.875 l 8.8806,10.5833 h -15.875 l 3.33,3.9687 H 60.118 L 47.9074,44.285 44.5774,40.3162 H 28.7024 L 19.8218,29.7329 h 15.875 l -3.33,-3.9688 z m 23.8125,0 27.7513,33.0729 h 3.9687 L 55.8449,44.285 h 15.875 l -3.33,-3.9688 H 52.5149 L 43.6343,29.7329 h 15.875 l -3.33,-3.9688 z m 23.8125,0 3.33,3.9688 h 7.9375 L 95.8368,58.837 h 3.9687 L 75.3843,29.7329 h 7.9375 l -3.33,-3.9688 z m 23.8125,0 27.7515,33.0729 h 3.969 L 103.47,44.285 h 15.875 l -12.211,-14.5521 -3.33,-3.9688 z m 7.2988,3.9688 h 7.9375 3.9692 l 8.88,10.5833 H 100.14 Z"
              id="path10507" />
      <path
              style="fill:#f6f704;fill-opacity:1;stroke:#0fee59;stroke-width:0.264583px;stroke-linecap:butt;stroke-linejoin:miter;stroke-opacity:1"
              d="m 12.5227,25.5939 15.5407,18.5208 h 15.875 L 52.819,54.698 H 36.944 l 3.33,3.9688 H 60.1177 L 47.9071,44.1147 44.5771,40.1459 H 28.7021 L 19.8215,29.5626 h 15.875 l -3.33,-3.9687 z m 23.8125,0 27.7513,33.0729 h 3.9687 L 55.8446,44.1147 h 15.875 l -3.33,-3.9688 H 52.5146 L 43.634,29.5626 h 15.875 l -3.33,-3.9687 z m 23.8125,0 3.33,3.9687 h 7.9375 l 24.4213,29.1042 h 3.9687 L 75.384,29.5626 h 7.9375 l -3.33,-3.9687 z m 23.8125,0 27.7508,33.0729 h 3.969 L 103.47,44.1147 h 15.875 l -12.211,-14.5521 -3.33,-3.9687 z m 7.2988,3.9687 h 7.9375 3.9685 l 8.881,10.5833 H 100.14 Z"
              id="path10509" />
      <path
              style="fill:#f6f704;fill-opacity:1;stroke:#0fee59;stroke-width:0.264583px;stroke-linecap:butt;stroke-linejoin:miter;stroke-opacity:1"
              d="m 12.5224,25.4236 15.5407,18.5208 h 15.875 l 8.8806,10.5833 h -15.875 l 3.33,3.9688 H 60.1174 L 47.9068,43.9444 44.5768,39.9757 H 28.7018 L 19.8212,29.3923 h 15.875 l -3.33,-3.9687 z m 23.8125,0 27.7513,33.0729 h 3.9687 L 55.8443,43.9444 h 15.875 l -3.33,-3.9687 H 52.5143 L 43.6337,29.3923 h 15.875 l -3.33,-3.9687 z m 23.8125,0 3.33,3.9687 h 7.9375 l 24.4213,29.1042 h 3.9687 L 75.3837,29.3923 h 7.9375 l -3.33,-3.9687 z m 23.8125,0 27.7511,33.0729 h 3.969 L 103.469,43.9444 h 15.875 l -12.21,-14.5521 -3.33,-3.9687 z m 7.2988,3.9687 h 7.9375 3.9688 l 8.881,10.5834 h -11.907 z"
              id="path10511" />
      <path
              style="fill:#f6f704;fill-opacity:1;stroke:#0fee59;stroke-width:0.264583px;stroke-linecap:butt;stroke-linejoin:miter;stroke-opacity:1"
              d="m 12.5221,25.2533 15.5407,18.5208 h 15.875 l 8.8806,10.5834 h -15.875 l 3.33,3.9687 H 60.1172 L 47.9065,43.7741 44.5765,39.8054 H 28.7015 L 19.8209,29.2221 h 15.875 l -3.33,-3.9688 z m 23.8125,0 27.7513,33.0729 h 3.9688 L 55.844,43.7741 h 15.875 l -3.33,-3.9687 H 52.514 L 43.6334,29.2221 h 15.875 l -3.33,-3.9688 z m 23.8125,0 3.3301,3.9688 h 7.9375 l 24.4212,29.1041 h 3.9688 L 75.3834,29.2221 h 7.9375 l -3.33,-3.9688 z m 23.8125,0 27.7514,33.0729 h 3.969 L 103.469,43.7741 h 15.875 l -12.211,-14.552 -3.33,-3.9688 z m 7.2988,3.9688 h 7.9375 3.9691 l 8.88,10.5833 h -11.906 z"
              id="path10513" />
      <path
              style="fill:#f6f704;fill-opacity:1;stroke:#0fee59;stroke-width:0.264583px;stroke-linecap:butt;stroke-linejoin:miter;stroke-opacity:1"
              d="m 12.5218,25.083 15.5407,18.5209 h 15.875 l 8.8806,10.5833 h -15.875 l 3.33,3.9687 h 19.8438 l -12.2107,-14.552 -3.33,-3.9688 H 28.7012 L 19.8206,29.0518 h 15.875 l -3.33,-3.9688 z m 23.8125,0 27.7513,33.0729 h 3.9688 L 55.8437,43.6039 h 15.875 l -3.33,-3.9688 H 52.5137 L 43.6331,29.0518 h 15.875 l -3.33,-3.9688 z m 23.8125,0 3.3301,3.9688 h 7.9375 l 24.4212,29.1041 h 3.9688 L 75.3831,29.0518 h 7.9375 l -3.33,-3.9688 z m 23.8125,0 27.7517,33.0729 h 3.968 l -12.21,-14.552 h 15.875 l -12.211,-14.5521 -3.33,-3.9688 z m 7.2988,3.9688 h 7.9375 3.9684 l 8.881,10.5833 h -11.906 z"
              id="path10515" />
      <path
              style="fill:#f6f704;fill-opacity:1;stroke:#0fee59;stroke-width:0.264583px;stroke-linecap:butt;stroke-linejoin:miter;stroke-opacity:1"
              d="m 12.5215,24.9127 15.5407,18.5209 h 15.875 l 8.8806,10.5833 h -15.875 l 3.33,3.9688 H 60.1166 L 47.9059,43.4336 44.5759,39.4648 H 28.7009 L 19.8203,28.8815 h 15.875 l -3.33,-3.9688 z m 23.8125,0 27.7513,33.073 h 3.9688 L 55.8434,43.4336 h 15.875 l -3.33,-3.9688 H 52.5134 L 43.6328,28.8815 h 15.875 l -3.33,-3.9688 z m 23.8125,0 3.3301,3.9688 h 7.9375 l 24.4212,29.1042 h 3.9688 L 75.3828,28.8815 h 7.9375 l -3.33,-3.9688 z m 23.8125,0 27.751,33.073 h 3.969 L 103.468,43.4336 h 15.875 l -12.21,-14.5521 -3.33,-3.9688 z m 7.2988,3.9688 h 7.9375 3.9687 l 8.881,10.5833 h -11.907 z"
              id="path10517" />
      <path
              style="fill:#f6f704;fill-opacity:1;stroke:#0fee59;stroke-width:0.264583px;stroke-linecap:butt;stroke-linejoin:miter;stroke-opacity:1"
              d="m 12.5212,24.7425 15.5407,18.5208 h 15.875 l 8.8806,10.5833 h -15.875 l 3.33,3.9688 H 60.1163 L 47.9056,43.2633 44.5756,39.2946 H 28.7006 L 19.82,28.7112 h 15.875 l -3.33,-3.9687 z m 23.8125,0 27.7513,33.0729 h 3.9688 L 55.8431,43.2633 h 15.875 l -3.33,-3.9687 H 52.5131 L 43.6325,28.7112 h 15.875 l -3.33,-3.9687 z m 23.8125,0 3.3301,3.9687 h 7.9375 L 95.835,57.8154 h 3.9688 L 75.3825,28.7112 H 83.32 l -3.33,-3.9687 z m 23.8125,0 27.7513,33.0729 h 3.969 L 103.468,43.2633 h 15.875 l -12.21,-14.5521 -3.331,-3.9687 z m 7.2988,3.9687 h 7.9375 3.969 l 8.88,10.5834 h -11.906 z"
              id="path10519" />
      <path
              style="fill:#f6f704;fill-opacity:1;stroke:#0fee59;stroke-width:0.264583px;stroke-linecap:butt;stroke-linejoin:miter;stroke-opacity:1"
              d="M 12.5209,24.5722 28.0616,43.093 h 15.875 l 8.8806,10.5834 h -15.875 l 3.33,3.9687 H 60.116 L 47.9053,43.093 44.5753,39.1243 H 28.7003 L 19.8197,28.5409 h 15.875 l -3.33,-3.9687 z m 23.8125,0 27.7513,33.0729 h 3.9688 L 55.8428,43.093 h 15.875 l -3.33,-3.9687 H 52.5128 L 43.6322,28.5409 h 15.875 l -3.33,-3.9687 z m 23.8125,0 3.3301,3.9687 h 7.9375 l 24.4212,29.1042 h 3.9688 L 75.3822,28.5409 h 7.9375 l -3.33,-3.9687 z m 23.8125,0 27.7516,33.0729 h 3.968 L 103.468,43.093 h 15.875 l -12.211,-14.5521 -3.33,-3.9687 z m 7.2988,3.9687 h 7.9375 3.9683 l 8.881,10.5834 h -11.906 z"
              id="path10521" />
      <path
              style="fill:#f6f704;fill-opacity:1;stroke:#0fee59;stroke-width:0.264583px;stroke-linecap:butt;stroke-linejoin:miter;stroke-opacity:1"
              d="m 12.5206,24.4019 15.5407,18.5209 h 15.875 l 8.8806,10.5833 h -15.875 l 3.33,3.9687 H 60.1157 L 47.905,42.9228 44.575,38.954 H 28.7 L 19.8194,28.3707 h 15.875 l -3.33,-3.9688 z m 23.8125,0 27.7513,33.0729 h 3.9688 L 55.8425,42.9228 h 15.875 l -3.33,-3.9688 H 52.5125 L 43.6319,28.3707 h 15.875 l -3.33,-3.9688 z m 23.8125,0 3.3301,3.9688 h 7.9375 l 24.4212,29.1041 h 3.9688 L 75.3819,28.3707 h 7.9375 l -3.33,-3.9688 z m 23.8125,0 27.7509,33.0729 h 3.969 l -12.21,-14.552 h 15.875 l -12.211,-14.5521 -3.33,-3.9688 z m 7.2988,3.9688 h 7.9375 3.9686 l 8.881,10.5833 h -11.906 z"
              id="path10523" />
      <path
              style="fill:#f6f704;fill-opacity:1;stroke:#0fee59;stroke-width:0.264583px;stroke-linecap:butt;stroke-linejoin:miter;stroke-opacity:1"
              d="M 12.5203,24.2316 28.061,42.7525 h 15.875 l 8.8806,10.5833 h -15.875 l 3.33,3.9688 H 60.1154 L 47.9047,42.7525 44.5747,38.7837 H 28.6997 L 19.8191,28.2004 h 15.875 l -3.33,-3.9688 z m 23.8125,0 27.7513,33.073 h 3.9688 L 55.8422,42.7525 H 71.7173 L 68.3872,38.7837 H 52.5122 L 43.6316,28.2004 h 15.875 l -3.33,-3.9688 z m 23.8125,0 3.3301,3.9688 h 7.9375 l 24.4212,29.1042 h 3.9688 L 75.3816,28.2004 h 7.9375 l -3.33,-3.9688 z m 23.8125,0 27.7512,33.073 h 3.969 L 103.467,42.7525 h 15.875 l -12.21,-14.5521 -3.33,-3.9688 z m 7.2988,3.9688 h 7.9375 3.9689 l 8.88,10.5833 h -11.906 z"
              id="path10525" />
      <path
              style="fill:#f6f704;fill-opacity:1;stroke:#0fee59;stroke-width:0.264583px;stroke-linecap:butt;stroke-linejoin:miter;stroke-opacity:1"
              d="m 12.52,24.0614 15.5407,18.5208 h 15.875 l 8.8806,10.5833 h -15.875 l 3.33,3.9688 H 60.1151 L 47.9044,42.5822 44.5744,38.6134 H 28.6994 L 19.8188,28.0301 h 15.875 l -3.33,-3.9687 z m 23.8125,0 27.7513,33.0729 h 3.9688 L 55.8419,42.5822 H 71.717 L 68.3869,38.6134 H 52.5119 L 43.6313,28.0301 h 15.875 l -3.33,-3.9687 z m 23.8125,0 3.3301,3.9687 h 7.9375 l 24.4212,29.1042 h 3.9688 L 75.3813,28.0301 h 7.9375 l -3.33,-3.9687 z m 23.8125,0 27.7515,33.0729 h 3.969 L 103.467,42.5822 h 15.875 l -12.211,-14.5521 -3.33,-3.9687 z m 7.2988,3.9687 h 7.9375 3.9692 l 8.88,10.5833 h -11.906 z"
              id="path10527" />
      <path
              style="fill:#f6f704;fill-opacity:1;stroke:#0fee59;stroke-width:0.264583px;stroke-linecap:butt;stroke-linejoin:miter;stroke-opacity:1"
              d="m 12.5197,23.8911 15.5407,18.5208 h 15.875 L 52.816,52.9953 H 36.941 l 3.33,3.9687 H 60.1148 L 47.9042,42.4119 44.5741,38.4432 H 28.6991 L 19.8185,27.8598 h 15.875 l -3.33,-3.9687 z m 23.8125,0 27.7513,33.0729 h 3.9688 L 55.8417,42.4119 h 15.875 L 68.3866,38.4432 H 52.5116 L 43.631,27.8598 h 15.875 l -3.33,-3.9687 z m 23.8125,0 3.3301,3.9687 h 7.9375 L 95.8335,56.964 h 3.9688 L 75.381,27.8598 h 7.9375 l -3.33,-3.9687 z m 23.8125,0 27.7518,33.0729 h 3.968 l -12.21,-14.5521 h 15.875 l -12.211,-14.5521 -3.33,-3.9687 z m 7.2988,3.9687 h 7.9375 3.9685 l 8.881,10.5834 h -11.906 z"
              id="path10529" />
      <path
              style="fill:#f6f704;fill-opacity:1;stroke:#0fee59;stroke-width:0.264583px;stroke-linecap:butt;stroke-linejoin:miter;stroke-opacity:1"
              d="m 12.5195,23.7208 15.5406,18.5208 h 15.875 l 8.8806,10.5834 h -15.875 l 3.33,3.9687 H 60.1145 L 47.9039,42.2416 44.5738,38.2729 H 28.6988 L 19.8182,27.6896 h 15.875 l -3.33,-3.9688 z m 23.8125,0 27.7512,33.0729 H 68.052 L 55.8414,42.2416 h 15.875 L 68.3863,38.2729 H 52.5113 L 43.6307,27.6896 h 15.875 l -3.33,-3.9688 z m 23.8125,0 3.33,3.9688 H 71.412 L 95.8332,56.7937 H 99.802 L 75.3807,27.6896 h 7.9375 l -3.33,-3.9688 z m 23.8124,0 27.7511,33.0729 h 3.969 L 103.466,42.2416 h 15.875 l -12.21,-14.552 -3.33,-3.9688 z m 7.2988,3.9688 h 7.9375 3.9688 l 8.881,10.5833 h -11.907 z"
              id="path10531" />
      <path
              style="fill:#f6f704;fill-opacity:1;stroke:#0fee59;stroke-width:0.264583px;stroke-linecap:butt;stroke-linejoin:miter;stroke-opacity:1"
              d="m 12.5192,23.5505 15.5406,18.5209 h 15.875 l 8.8806,10.5833 h -15.875 l 3.33,3.9688 H 60.1142 L 47.9036,42.0714 44.5735,38.1026 H 28.6985 L 19.8179,27.5193 h 15.875 l -3.33,-3.9688 z m 23.8125,0 27.7512,33.073 h 3.9688 L 55.8411,42.0714 h 15.875 L 68.386,38.1026 H 52.511 L 43.6304,27.5193 h 15.875 l -3.33,-3.9688 z m 23.8125,0 3.33,3.9688 h 7.9375 l 24.4212,29.1042 h 3.9688 L 75.3804,27.5193 h 7.9375 l -3.33,-3.9688 z m 23.8125,0 27.7513,33.073 h 3.969 L 103.466,42.0714 h 15.875 L 107.13,27.5193 103.8,23.5505 Z m 7.2987,3.9688 h 7.9375 3.9691 l 8.88,10.5833 h -11.906 z"
              id="path10533" />
      <path
              style="fill:#f6f704;fill-opacity:1;stroke:#0fee59;stroke-width:0.264583px;stroke-linecap:butt;stroke-linejoin:miter;stroke-opacity:1"
              d="m 12.5189,23.3803 15.5406,18.5208 h 15.875 l 8.8806,10.5833 h -15.875 l 3.33,3.9688 H 60.1139 L 47.9033,41.9011 44.5732,37.9323 H 28.6982 L 19.8176,27.349 h 15.875 l -3.33,-3.9687 z m 23.8125,0 27.7512,33.0729 h 3.9688 L 55.8408,41.9011 h 15.875 L 68.3857,37.9323 H 52.5107 L 43.6301,27.349 h 15.875 l -3.33,-3.9687 z m 23.8125,0 3.33,3.9687 h 7.9375 l 24.4212,29.1042 h 3.9688 L 75.3801,27.349 h 7.9375 l -3.33,-3.9687 z m 23.8125,0 27.7516,33.0729 h 3.968 l -12.21,-14.5521 h 15.875 L 107.13,27.349 103.8,23.3803 Z m 7.2987,3.9687 h 7.9375 3.9684 l 8.881,10.5833 h -11.906 z"
              id="path10535" />
      <path
              style="fill:#f6f704;fill-opacity:1;stroke:#0fee59;stroke-width:0.264583px;stroke-linecap:butt;stroke-linejoin:miter;stroke-opacity:1"
              d="m 12.5186,23.21 15.5406,18.5208 h 15.875 l 8.8806,10.5834 h -15.875 l 3.33,3.9687 H 60.1136 L 47.903,41.7308 44.5729,37.7621 H 28.6979 L 19.8173,27.1787 h 15.875 l -3.33,-3.9687 z m 23.8125,0 27.7512,33.0729 h 3.9688 L 55.8405,41.7308 h 15.875 L 68.3854,37.7621 H 52.5104 L 43.6298,27.1787 h 15.875 l -3.33,-3.9687 z m 23.8125,0 3.33,3.9687 h 7.9375 l 24.4212,29.1042 h 3.9688 L 75.3798,27.1787 h 7.9375 l -3.33,-3.9687 z m 23.8125,0 27.7509,33.0729 h 3.969 L 103.465,41.7308 H 119.34 L 107.13,27.1787 103.8,23.21 Z m 7.2987,3.9687 h 7.9375 3.9687 l 8.881,10.5834 h -11.907 z"
              id="path10537" />
      <path
              style="fill:#f6f704;fill-opacity:1;stroke:#0fee59;stroke-width:0.264583px;stroke-linecap:butt;stroke-linejoin:miter;stroke-opacity:1"
              d="m 12.5183,23.0397 15.5406,18.5208 h 15.875 l 8.8806,10.5834 h -15.875 l 3.33,3.9687 H 60.1133 L 47.9027,41.5605 44.5726,37.5918 H 28.6976 L 19.817,27.0085 h 15.875 l -3.33,-3.9688 z m 23.8125,0 27.7512,33.0729 h 3.9688 L 55.8402,41.5605 h 15.875 L 68.3851,37.5918 H 52.5101 L 43.6295,27.0085 h 15.875 l -3.33,-3.9688 z m 23.8125,0 3.33,3.9688 h 7.9375 L 95.832,56.1126 h 3.9688 L 75.3795,27.0085 h 7.9375 l -3.33,-3.9688 z m 23.8125,0 27.7512,33.0729 h 3.969 L 103.465,41.5605 h 15.875 l -12.21,-14.552 -3.33,-3.9688 z m 7.2987,3.9688 h 7.9375 3.969 l 8.88,10.5833 h -11.906 z"
              id="path10539" />
      <path
              style="fill:#f6f704;fill-opacity:1;stroke:#0fee59;stroke-width:0.264583px;stroke-linecap:butt;stroke-linejoin:miter;stroke-opacity:1"
              d="m 12.518,22.8694 15.5406,18.5209 h 15.875 l 8.8806,10.5833 h -15.875 l 3.33,3.9687 H 60.113 L 47.9024,41.3903 44.5723,37.4215 H 28.6973 L 19.8167,26.8382 h 15.875 l -3.33,-3.9688 z m 23.8125,0 27.7512,33.0729 h 3.9688 L 55.8399,41.3903 h 15.875 L 68.3848,37.4215 H 52.5098 L 43.6292,26.8382 h 15.875 l -3.33,-3.9688 z m 23.8125,0 3.33,3.9688 h 7.9375 l 24.4212,29.1041 h 3.9688 L 75.3792,26.8382 h 7.9375 l -3.33,-3.9688 z m 23.8125,0 27.7515,33.0729 h 3.968 l -12.21,-14.552 h 15.875 l -12.211,-14.5521 -3.33,-3.9688 z m 7.2987,3.9688 h 7.9375 3.9683 l 8.881,10.5833 h -11.906 z"
              id="path10541" />
      <path
              style="fill:#f6f704;fill-opacity:1;stroke:#0fee59;stroke-width:0.264583px;stroke-linecap:butt;stroke-linejoin:miter;stroke-opacity:1"
              d="M 12.5177,22.6992 28.0583,41.22 h 15.875 l 8.8806,10.5833 h -15.875 l 3.33,3.9688 H 60.1127 L 47.9021,41.22 44.572,37.2512 H 28.697 L 19.8165,26.6679 h 15.875 l -3.3301,-3.9687 z m 23.8125,0 27.7512,33.0729 h 3.9688 L 55.8396,41.22 h 15.875 L 68.3845,37.2512 H 52.5095 L 43.629,26.6679 h 15.875 l -3.3301,-3.9687 z m 23.8125,0 3.33,3.9687 h 7.9375 l 24.4212,29.1042 h 3.9688 L 75.3789,26.6679 h 7.9375 l -3.33,-3.9687 z m 23.8125,0 27.7508,33.0729 h 3.969 L 103.465,41.22 h 15.875 l -12.211,-14.5521 -3.33,-3.9687 z m 7.2987,3.9687 h 7.9375 3.9686 l 8.881,10.5833 h -11.906 z"
              id="path10543" />
      <path
              style="fill:#f6f704;fill-opacity:1;stroke:#0fee59;stroke-width:0.264583px;stroke-linecap:butt;stroke-linejoin:miter;stroke-opacity:1"
              d="M 12.5174,22.5289 28.058,41.0497 h 15.875 l 8.8806,10.5833 h -15.875 l 3.3301,3.9688 H 60.1124 L 47.9018,41.0497 44.5717,37.081 H 28.6967 L 19.8162,26.4976 h 15.875 l -3.3301,-3.9687 z m 23.8125,0 27.7513,33.0729 h 3.9687 L 55.8393,41.0497 h 15.875 L 68.3842,37.081 H 52.5092 L 43.6287,26.4976 h 15.875 l -3.3301,-3.9687 z m 23.8125,0 3.33,3.9687 h 7.9375 l 24.4213,29.1042 h 3.9687 L 75.3787,26.4976 h 7.9375 l -3.3301,-3.9687 z m 23.8125,0 27.7511,33.0729 h 3.969 L 103.464,41.0497 h 15.875 l -12.21,-14.5521 -3.33,-3.9687 z m 7.2988,3.9687 h 7.9375 3.9688 l 8.881,10.5834 h -11.907 z"
              id="path10545" />
      <path
              style="fill:#f6f704;fill-opacity:1;stroke:#0fee59;stroke-width:0.264583px;stroke-linecap:butt;stroke-linejoin:miter;stroke-opacity:1"
              d="m 12.5171,22.3586 15.5406,18.5208 h 15.875 l 8.8806,10.5834 h -15.875 l 3.3301,3.9687 H 60.1121 L 47.9015,40.8794 44.5715,36.9107 H 28.6965 L 19.8159,26.3274 h 15.875 l -3.3301,-3.9688 z m 23.8125,0 27.7513,33.0729 h 3.9687 L 55.839,40.8794 h 15.875 l -3.33,-3.9687 H 52.509 L 43.6284,26.3274 h 15.875 l -3.3301,-3.9688 z m 23.8125,0 3.33,3.9688 h 7.9375 l 24.4213,29.1041 h 3.9687 L 75.3784,26.3274 h 7.9375 l -3.3301,-3.9688 z m 23.8125,0 27.7514,33.0729 h 3.969 L 103.464,40.8794 h 15.875 l -12.211,-14.552 -3.33,-3.9688 z m 7.2988,3.9688 h 7.9375 3.9691 l 8.88,10.5833 h -11.906 z"
              id="path10547" />
      <path
              style="fill:#f6f704;fill-opacity:1;stroke:#0fee59;stroke-width:0.264583px;stroke-linecap:butt;stroke-linejoin:miter;stroke-opacity:1"
              d="m 12.5168,22.1883 15.5406,18.5209 h 15.875 L 52.813,51.2925 H 36.938 l 3.3301,3.9687 h 19.8437 l -12.2106,-14.552 -3.33,-3.9688 H 28.6962 L 19.8156,26.1571 h 15.875 l -3.3301,-3.9688 z m 23.8125,0 27.7513,33.0729 h 3.9687 L 55.8387,40.7092 h 15.875 l -3.33,-3.9688 H 52.5087 L 43.6281,26.1571 h 15.875 L 56.173,22.1883 Z m 23.8125,0 3.33,3.9688 h 7.9375 l 24.4213,29.1041 h 3.9687 L 75.3781,26.1571 h 7.9375 l -3.3301,-3.9688 z m 23.8125,0 27.7517,33.0729 h 3.968 l -12.21,-14.552 h 15.875 l -12.211,-14.5521 -3.33,-3.9688 z m 7.2988,3.9688 h 7.9375 3.9684 l 8.881,10.5833 h -11.906 z"
              id="path10549" />
      <path
              style="fill:#f6f704;fill-opacity:1;stroke:#0fee59;stroke-width:0.264583px;stroke-linecap:butt;stroke-linejoin:miter;stroke-opacity:1"
              d="m 12.5165,22.018 15.5406,18.5209 h 15.875 l 8.8806,10.5833 h -15.875 l 3.3301,3.9688 H 60.1115 L 47.9009,40.5389 44.5709,36.5701 H 28.6959 L 19.8153,25.9868 h 15.875 L 32.3602,22.018 Z m 23.8125,0 27.7513,33.073 H 68.049 L 55.8384,40.5389 h 15.875 l -3.33,-3.9688 H 52.5084 L 43.6278,25.9868 h 15.875 L 56.1727,22.018 Z m 23.8125,0 3.33,3.9688 H 71.409 L 95.8303,55.091 H 99.799 L 75.3778,25.9868 h 7.9375 L 79.9852,22.018 Z m 23.8125,0 27.751,33.073 h 3.969 L 103.463,40.5389 h 15.875 l -12.21,-14.5521 -3.33,-3.9688 z m 7.2988,3.9688 h 7.9375 3.9687 l 8.881,10.5833 h -11.907 z"
              id="path10551" />
      <path
              style="fill:#f6f704;fill-opacity:1;stroke:#0fee59;stroke-width:0.264583px;stroke-linecap:butt;stroke-linejoin:miter;stroke-opacity:1"
              d="m 12.5162,21.8478 15.5406,18.5208 h 15.875 l 8.8806,10.5833 h -15.875 l 3.3301,3.9688 H 60.1112 L 47.9006,40.3686 44.5706,36.3999 H 28.6956 L 19.815,25.8165 H 35.69 l -3.3301,-3.9687 z m 23.8125,0 27.7513,33.0729 h 3.9687 L 55.8381,40.3686 h 15.875 l -3.33,-3.9687 H 52.5081 L 43.6275,25.8165 h 15.875 l -3.3301,-3.9687 z m 23.8125,0 3.33,3.9687 h 7.9375 L 95.83,54.9207 h 3.9687 L 75.3775,25.8165 h 7.9375 l -3.3301,-3.9687 z m 23.8125,0 27.7513,33.0729 h 3.969 L 103.463,40.3686 h 15.875 l -12.211,-14.5521 -3.33,-3.9687 z m 7.2988,3.9687 h 7.9375 3.969 l 8.88,10.5834 h -11.906 z"
              id="path10553" />
      <path
              style="fill:#f6f704;fill-opacity:1;stroke:#0fee59;stroke-width:0.264583px;stroke-linecap:butt;stroke-linejoin:miter;stroke-opacity:1"
              d="m 12.5159,21.6775 15.5406,18.5208 h 15.875 l 8.8806,10.5834 h -15.875 l 3.3301,3.9687 H 60.1109 L 47.9003,40.1983 44.5703,36.2296 H 28.6953 L 19.8147,25.6462 h 15.875 l -3.3301,-3.9687 z m 23.8125,0 27.7513,33.0729 h 3.9687 L 55.8378,40.1983 h 15.875 l -3.33,-3.9687 H 52.5078 L 43.6272,25.6462 h 15.875 l -3.3301,-3.9687 z m 23.8125,0 3.33,3.9687 h 7.9375 l 24.4213,29.1042 h 3.9687 L 75.3772,25.6462 h 7.9375 l -3.3301,-3.9687 z m 23.8125,0 27.7516,33.0729 h 3.968 l -12.21,-14.5521 h 15.875 l -12.211,-14.5521 -3.33,-3.9687 z m 7.2988,3.9687 h 7.9375 3.9683 l 8.881,10.5834 h -11.906 z"
              id="path10555" />
      <path
              style="fill:#f6f704;fill-opacity:1;stroke:#0fee59;stroke-width:0.264583px;stroke-linecap:butt;stroke-linejoin:miter;stroke-opacity:1"
              d="m 12.5156,21.5072 15.5406,18.5209 h 15.875 l 8.8806,10.5833 h -15.875 l 3.3301,3.9687 H 60.1106 L 47.9,40.0281 44.57,36.0593 H 28.695 L 19.8144,25.476 h 15.875 l -3.3301,-3.9688 z m 23.8125,0 27.7513,33.0729 h 3.9687 L 55.8375,40.0281 h 15.875 l -3.33,-3.9688 H 52.5075 L 43.6269,25.476 h 15.875 l -3.3301,-3.9688 z m 23.8125,0 3.33,3.9688 h 7.9375 l 24.4213,29.1041 h 3.9687 L 75.3769,25.476 h 7.9375 l -3.3301,-3.9688 z m 23.8125,0 27.7509,33.0729 h 3.969 l -12.211,-14.552 h 15.876 l -12.211,-14.5521 -3.33,-3.9688 z m 7.2988,3.9688 h 7.9375 3.9686 l 8.881,10.5833 h -11.907 z"
              id="path10557" />
      <path
              style="fill:#f6f704;fill-opacity:1;stroke:#0fee59;stroke-width:0.264583px;stroke-linecap:butt;stroke-linejoin:miter;stroke-opacity:1"
              d="M 12.5153,21.3369 28.056,39.8578 h 15.875 l 8.8805,10.5833 h -15.875 l 3.3301,3.9688 H 60.1103 L 47.8997,39.8578 44.5697,35.889 H 28.6947 L 19.8141,25.3057 h 15.875 L 32.359,21.3369 Z m 23.8125,0 27.7513,33.073 h 3.9687 L 55.8372,39.8578 h 15.875 l -3.33,-3.9688 H 52.5072 L 43.6266,25.3057 h 15.875 l -3.3301,-3.9688 z m 23.8125,0 3.33,3.9688 h 7.9375 l 24.4213,29.1042 h 3.9687 L 75.3766,25.3057 h 7.9375 L 79.984,21.3369 Z m 23.8125,0 27.7512,33.073 h 3.969 L 103.462,39.8578 h 15.875 l -12.21,-14.5521 -3.33,-3.9688 z m 7.2988,3.9688 h 7.9375 3.9689 l 8.88,10.5833 h -11.906 z"
              id="path10559" />
      <path
              style="fill:#f6f704;fill-opacity:1;stroke:#0fee59;stroke-width:0.264583px;stroke-linecap:butt;stroke-linejoin:miter;stroke-opacity:1"
              d="m 12.515,21.1667 15.5407,18.5208 h 15.875 l 8.8805,10.5833 h -15.875 l 3.3301,3.9688 H 60.11 L 47.8994,39.6875 44.5694,35.7188 H 28.6944 L 19.8138,25.1354 h 15.875 l -3.33,-3.9687 z m 23.8125,0 27.7513,33.0729 h 3.9687 L 55.8369,39.6875 h 15.875 l -3.33,-3.9687 H 52.5069 L 43.6263,25.1354 h 15.875 l -3.33,-3.9687 z m 23.8125,0 3.33,3.9687 h 7.9375 l 24.4213,29.1042 h 3.9687 L 75.3763,25.1354 h 7.9375 l -3.3301,-3.9687 z m 23.8125,0 27.7515,33.0729 h 3.969 L 103.462,39.6875 h 15.875 l -12.211,-14.5521 -3.33,-3.9687 z m 7.2988,3.9687 h 7.9375 3.9692 l 8.88,10.5834 h -11.906 z"
              id="path10561" />
    </g>
  </g>
  <g
          inkscape:groupmode="layer"
          id="layer3"
          inkscape:label="ex">
    <path
            style="fill:#f6f704;fill-opacity:1;stroke:#0fee59;stroke-width:0.868784;stroke-linecap:round;stroke-linejoin:round;stroke-miterlimit:4;stroke-dasharray:none;stroke-opacity:1"
            d="M 70.100514,57.985603 V 32.537768 h 6.591137 L 66.145832,13.451892 55.600013,32.537768 h 6.591137 v 25.447835 c 2.636454,0 -0.326696,3e-6 7.909364,0 z"
            id="path12607"
            sodipodi:nodetypes="cccccccc" />
    <path
            style="fill:#0fee59;fill-opacity:1;stroke:#0fee59;stroke-width:0.105833px;stroke-linecap:butt;stroke-linejoin:miter;stroke-opacity:1"
            d="m 76.729165,46.302083 h 7.408333 v 1.5875 h -5.820833 v 3.704167 h 5.820834 v 1.5875 h -5.820834 v 3.704167 h 5.820833 v 1.5875 h -7.408333 z"
            id="path13235"
            sodipodi:nodetypes="ccccccccccccc" />
    <g
            id="g15120"
            style="fill:#feff00;fill-opacity:1"
            transform="matrix(0.40000003,0,0,0.40000003,51.329164,36.777082)">
      <path
              style="fill:#feff00;fill-opacity:1;stroke:#f6f704;stroke-width:5.29167;stroke-linecap:round;stroke-linejoin:miter;stroke-miterlimit:4;stroke-dasharray:none;stroke-opacity:1"
              d="M 91.281251,23.8125 109.80208,54.239583"
              id="path14774" />
      <path
              style="fill:#feff00;fill-opacity:1;stroke:#f6f704;stroke-width:5.29167;stroke-linecap:round;stroke-linejoin:miter;stroke-miterlimit:4;stroke-dasharray:none;stroke-opacity:1"
              d="M 91.281251,54.239583 109.80208,23.8125"
              id="path14776" />
    </g>
  </g>
</svg>
